<svg width="99" height="72" viewBox="0 0 99 72" fill="none" xmlns="http://www.w3.org/2000/svg">
<g id="Layer_1" clip-path="url(#clip0_1_2126)">
<path id="Vector" d="M99 50.2814H83.3058V49.39C83.2086 31.0076 68.0488 16.0463 49.4879 16.0463C30.9269 16.0463 15.7914 31.0076 15.6942 49.39V50.2814H0V49.3659C0.0971779 22.4307 22.3023 0.482666 49.4879 0.482666C76.6734 0.482666 98.9028 22.4307 99 49.39V50.3055V50.2814ZM85.1036 48.4745H97.1779C96.5948 22.9367 75.3858 2.28959 49.4879 2.28959C23.5899 2.28959 2.42945 22.9367 1.84638 48.4745H13.9207C14.5038 29.5139 30.2709 14.2394 49.5121 14.2394C68.7534 14.2394 84.5448 29.5139 85.1279 48.4745H85.1036Z" fill="black"/>
<path id="Vector_2" d="M87.2898 24.8159L46.9367 52.6666L44.3372 47.9204L41.519 42.7647L87.2898 24.8159Z" fill="black"/>
<g id="Group">
<path id="Vector_3" d="M93.3154 65.0983H5.70947V66.9052H93.3154V65.0983Z" fill="black"/>
<path id="Vector_4" d="M6.43819 60.4966V71.4827L0.92334 65.9896L6.43819 60.4966Z" fill="black"/>
<path id="Vector_5" d="M92.562 60.4966V71.4827L98.1012 65.9896L92.562 60.4966Z" fill="black"/>
</g>
</g>
<defs>
<clipPath id="clip0_1_2126">
<rect width="99" height="71" fill="white" transform="translate(0 0.482666)"/>
</clipPath>
</defs>
</svg>
