<svg width="84" height="80" viewBox="0 0 84 80" fill="none" xmlns="http://www.w3.org/2000/svg">
<g id="Layer_1" clip-path="url(#clip0_1_2109)">
<path id="Vector" d="M6.75957 79.4826L0 72.7644L6.75957 66.0463L13.5191 72.7644L6.75957 79.4826ZM2.90579 72.7644L6.75957 76.5946L10.6133 72.7644L6.75957 68.9343L2.90579 72.7644Z" fill="black"/>
<path id="Vector_2" d="M53.7469 79.4826L46.9873 72.7644L53.7469 66.0463L60.5064 72.7644L53.7469 79.4826ZM49.8931 72.7644L53.7469 76.5946L57.6007 72.7644L53.7469 68.9343L49.8931 72.7644Z" fill="black"/>
<path id="Vector_3" d="M54.7772 46.9978H52.7163V67.48H54.7772V46.9978Z" fill="black"/>
<path id="Vector_4" d="M30.2532 79.4826L23.4937 72.7644L30.2532 66.0463L37.0128 72.7644L30.2532 79.4826ZM26.3994 72.7644L30.2532 76.5946L34.107 72.7644L30.2532 68.9343L26.3994 72.7644Z" fill="black"/>
<path id="Vector_5" d="M31.2835 46.9978H29.2227V67.48H31.2835V46.9978Z" fill="black"/>
<path id="Vector_6" d="M77.2405 79.4826L70.481 72.7644L77.2405 66.0463L84.0001 72.7644L77.2405 79.4826ZM73.3867 72.7644L77.2405 76.5946L81.0943 72.7644L77.2405 68.9343L73.3867 72.7644Z" fill="black"/>
<path id="Vector_7" d="M78.2707 67.4801H76.2099V48.022H7.78985V67.4801H5.729V45.9738H78.2707V67.4801Z" fill="black"/>
<path id="Vector_8" d="M41.9942 0.462713L27.4072 14.9603L41.9942 29.4579L56.5811 14.9603L41.9942 0.462713Z" fill="black"/>
<path id="Vector_9" d="M52.3248 4.72253H31.6958V25.2253H52.3248V4.72253Z" fill="black"/>
<path id="Vector_10" d="M43.0306 22.8698H40.9697V46.9978H43.0306V22.8698Z" fill="black"/>
</g>
<defs>
<clipPath id="clip0_1_2109">
<rect width="84" height="79" fill="white" transform="translate(0 0.482666)"/>
</clipPath>
</defs>
</svg>
