<svg width="80" height="81" viewBox="0 0 80 81" fill="none" xmlns="http://www.w3.org/2000/svg">
<g id="Layer_1" clip-path="url(#clip0_1_2089)">
<path id="Vector" d="M39.6 18.4715L17.5796 40.4918L39.6 62.5122L61.6203 40.4918L39.6 18.4715Z" fill="black"/>
<g id="Group">
<path id="Vector (Stroke)" fill-rule="evenodd" clip-rule="evenodd" d="M39.9999 0.481934L57.2438 17.7258L56.1279 18.8417L39.9999 2.71373L23.5773 19.1363L22.4614 18.0204L39.9999 0.481934Z" fill="black"/>
<path id="Vector_2" d="M59.6108 14.4332L52.8354 21.2086H59.6108V14.4332Z" fill="black"/>
</g>
<g id="Group_2">
<path id="Vector (Stroke)_2" fill-rule="evenodd" clip-rule="evenodd" d="M77.7688 40.4827L61.3462 24.0601L62.4621 22.9442L80.0006 40.4827L62.7567 57.7266L61.6408 56.6107L77.7688 40.4827Z" fill="black"/>
<path id="Vector_3" d="M66.0493 60.0934L59.2739 53.318V60.0934H66.0493Z" fill="black"/>
</g>
<g id="Group_3">
<path id="Vector (Stroke)_3" fill-rule="evenodd" clip-rule="evenodd" d="M39.9998 78.2516L56.4224 61.829L57.5382 62.9449L39.9998 80.4834L22.7559 63.2395L23.8718 62.1236L39.9998 78.2516Z" fill="black"/>
<path id="Vector_4" d="M20.3892 66.5321L27.1645 59.7567H20.3892V66.5321Z" fill="black"/>
</g>
<g id="Group_4">
<path id="Vector (Stroke)_4" fill-rule="evenodd" clip-rule="evenodd" d="M2.23131 40.4827L18.3593 24.3547L17.2434 23.2388L-0.000488281 40.4827L17.538 58.0212L18.6539 56.9053L2.23131 40.4827Z" fill="black"/>
<path id="Vector_5" d="M13.9507 20.8719L20.7261 27.6473V20.8719H13.9507Z" fill="black"/>
</g>
</g>
<defs>
<clipPath id="clip0_1_2089">
<rect width="80" height="80" fill="white" transform="translate(0 0.482666)"/>
</clipPath>
</defs>
</svg>
