<svg width="74" height="75" viewBox="0 0 74 75" fill="none" xmlns="http://www.w3.org/2000/svg">
<g id="Layer_1" clip-path="url(#clip0_1_2066)">
<path id="Vector" d="M58.7773 26.4384H56.4505C56.3358 24.7998 56.0736 23.4397 55.6476 22.3419C55.2215 21.244 54.6316 20.3755 53.8451 19.7528C53.0586 19.1302 52.0918 18.6877 50.912 18.4092C49.7322 18.147 48.323 18.0159 46.7007 18.0159C45.2915 18.0159 44.1609 18.0487 43.3088 18.0978C42.4567 18.1634 41.8013 18.2617 41.3424 18.4092C40.8836 18.5567 40.5887 18.7369 40.4576 18.9499C40.3265 19.1629 40.261 19.4415 40.261 19.7692V50.2311C40.261 51.4437 40.3429 52.4924 40.5231 53.3609C40.7034 54.2294 41.0311 54.9504 41.5555 55.4911C42.0634 56.0482 42.8172 56.4579 43.7676 56.7365C44.7344 57.015 46.0125 57.1789 47.6184 57.228V59.391H26.0869V57.228C27.6764 57.1953 28.9709 57.0314 29.9541 56.7365C30.9372 56.4415 31.691 56.0319 32.199 55.4911C32.7069 54.934 33.051 54.2294 33.2313 53.3609C33.4115 52.4924 33.4935 51.4437 33.4935 50.2311V19.7692C33.4935 19.4251 33.4279 19.1466 33.2968 18.9499C33.1657 18.7369 32.9036 18.5567 32.4939 18.4092C32.1006 18.2617 31.5271 18.147 30.8225 18.0978C30.1015 18.0487 29.1347 18.0159 27.9222 18.0159C26.4474 18.0159 25.071 18.0815 23.7928 18.1798C22.5311 18.2945 21.4168 18.6222 20.4992 19.1793C19.5652 19.7365 18.8114 20.5722 18.2543 21.7192C17.6808 22.8498 17.3858 24.4393 17.3531 26.4384H15.2393V15.558H58.2366L58.8101 26.4384H58.7773Z" fill="black"/>
<path id="Vector_2" d="M66.6098 67.0925H7.39014V7.8728H66.6098V67.0925ZM8.53717 65.9454H65.4791V9.01984H8.53717V65.9454Z" fill="black"/>
<path id="Vector_3" d="M65.678 8.0647L7.53271 66.0884L8.34294 66.9003L66.4883 8.87663L65.678 8.0647Z" fill="black"/>
<path id="Vector_4" d="M8.37406 8.04061L7.56299 8.85168L65.6475 66.9362L66.4586 66.1251L8.37406 8.04061Z" fill="black"/>
<g id="Group">
<path id="Vector_5" d="M73.4268 1.05615H66.0366V8.44632H73.4268V1.05615Z" fill="white"/>
<path id="Vector_6" d="M74.0001 9.01987H65.4629V0.482666H74.0001V9.01987ZM66.6099 7.87283H72.8531V1.6297H66.6099V7.87283Z" fill="black"/>
</g>
<g id="Group_2">
<path id="Vector_7" d="M73.0991 73.5813V66.1912H65.7089V73.5813H73.0991Z" fill="white"/>
<path id="Vector_8" d="M73.6725 74.1549H65.1353V65.6177H73.6725V74.1549ZM66.2823 73.0078H72.5254V66.7647H66.2823V73.0078Z" fill="black"/>
</g>
<g id="Group_3">
<path id="Vector_9" d="M7.9639 1.05615H0.57373V8.44632H7.9639V1.05615Z" fill="white"/>
<path id="Vector_10" d="M8.5372 9.01987H0V0.482666H8.5372V9.01987ZM1.14703 7.87283H7.39017V1.6297H1.14703V7.87283Z" fill="black"/>
</g>
<g id="Group_4">
<path id="Vector_11" d="M7.96387 73.9091L7.96387 66.5189H0.573696L0.573696 73.9091H7.96387Z" fill="white"/>
<path id="Vector_12" d="M8.5372 74.4826H0V65.9454H8.5372V74.4826ZM1.14703 73.3356H7.39017V67.0925H1.14703V73.3356Z" fill="black"/>
</g>
</g>
<defs>
<clipPath id="clip0_1_2066">
<rect width="74" height="74" fill="white" transform="translate(0 0.482666)"/>
</clipPath>
</defs>
</svg>
