<svg width="180" height="185" viewBox="0 0 180 185" fill="none" xmlns="http://www.w3.org/2000/svg">
<g id="Vespa-personalization 2" clip-path="url(#clip0_1_2909)">
<g id="Layer 1">
<g id="Group">
<path id="Vector" d="M180 19.5319H132.817L113.682 0.351196L94.5011 19.5319H0V22.6985H94.5011L113.682 41.8792L132.863 22.6985H180.045V19.5319H180ZM113.682 37.4007L97.3963 21.1152L113.682 4.82971L129.967 21.1152L113.682 37.4007Z" fill="black"/>
<path id="Vector_2" d="M180 67.1217H164.122L144.941 47.941L125.76 67.1217H0V70.2884H125.76L144.941 89.4691L164.122 70.2884H180V67.1217Z" fill="black"/>
<path id="Vector_3" d="M180 114.712H93.5964L74.4157 95.5309L55.235 114.712H0V117.878H55.235L74.4157 137.059L93.5964 117.878H180V114.712ZM74.4157 132.58L58.1302 116.295L74.4157 100.009L90.7012 116.295L74.4157 132.58Z" fill="black"/>
<path id="Vector_4" d="M180 162.301H132.817L113.637 143.121L94.4559 162.301H0V165.468H94.5011L113.682 184.649L132.863 165.468H180.045V162.301H180ZM113.682 180.17L97.3963 163.885L113.682 147.599L129.967 163.885L113.682 180.17Z" fill="black"/>
</g>
</g>
</g>
<defs>
<clipPath id="clip0_1_2909">
<rect width="180" height="184.298" fill="white" transform="translate(0 0.351196)"/>
</clipPath>
</defs>
</svg>
