<svg width="180" height="174" viewBox="0 0 180 174" fill="none" xmlns="http://www.w3.org/2000/svg">
<g id="Vespa-structured-navigation 1" clip-path="url(#clip0_1_2960)">
<g id="Layer 1">
<path id="Vector" d="M27.8109 0V50.199H0V153.333H86.8657L103.881 173.483L120.896 153.333H147.91V105.92H179.95V0H27.8109ZM55.2239 149.801H3.53234V53.7313H55.2239V149.801ZM103.881 138.458C98.2587 138.458 93.6816 133.881 93.6816 128.209C93.6816 122.537 98.2587 118.01 103.881 118.01C109.502 118.01 114.08 122.587 114.08 128.209C114.08 133.831 109.502 138.458 103.881 138.458ZM144.428 149.801H123.93L127.413 145.721C133.234 137.065 134.03 125.721 129.502 116.219C125.224 107.164 116.915 101.194 107.214 100.199C105.075 100 102.836 100 100.647 100.199C90.9453 101.194 82.6368 107.164 78.3582 116.219C73.8308 125.721 74.6269 137.065 80.4478 145.721L83.9304 149.801H58.806V53.7313H144.478V149.801H144.428ZM176.468 102.388H147.96V50.199H120.299V3.53234H176.468V102.388Z" fill="black"/>
</g>
</g>
<defs>
<clipPath id="clip0_1_2960">
<rect width="180" height="173.483" fill="white"/>
</clipPath>
</defs>
</svg>
