<svg width="180" height="156" viewBox="0 0 180 156" fill="none" xmlns="http://www.w3.org/2000/svg">
<g id="Vespa-search-2 1" clip-path="url(#clip0_1_2019)">
<g id="Layer 1">
<g id="Group">
<path id="Vector" d="M32.7463 0.935059V57.1195H0V106.847H31.5304V155.065H180V0.935059H32.7463ZM2.93501 60.0546H107.589V103.912H2.93501V60.0546ZM177.065 152.13H34.4235V106.847H159.203V57.1195H35.6813V3.87007H177.065V152.13Z" fill="black"/>
<g id="Group_2">
<path id="Vector_2" d="M131.279 90.5787C137.925 90.5787 143.312 85.1911 143.312 78.5451C143.312 71.8992 137.925 66.5116 131.279 66.5116C124.633 66.5116 119.245 71.8992 119.245 78.5451C119.245 85.1911 124.633 90.5787 131.279 90.5787Z" fill="black"/>
<path id="Vector_3" d="M131.279 69.6143C136.226 69.6143 140.209 73.6395 140.209 78.5451C140.209 83.4508 136.184 87.476 131.279 87.476C126.373 87.476 122.348 83.4508 122.348 78.5451C122.348 73.6395 126.373 69.6143 131.279 69.6143ZM131.279 66.5535C124.654 66.5535 119.245 71.9204 119.245 78.5871C119.245 85.2537 124.612 90.6206 131.279 90.6206C137.945 90.6206 143.312 85.2537 143.312 78.5871C143.312 71.9204 137.945 66.5535 131.279 66.5535Z" fill="white"/>
</g>
<path id="Vector_4" d="M137.634 85.6168L135.366 87.4797L144.734 98.8844L147.002 97.0215L137.634 85.6168Z" fill="white"/>
<path id="Vector_5" d="M15.7651 65.4214H12.8301V97.4131H15.7651V65.4214Z" fill="black"/>
</g>
</g>
</g>
<defs>
<clipPath id="clip0_1_2019">
<rect width="180" height="154.13" fill="white" transform="translate(0 0.935059)"/>
</clipPath>
</defs>
</svg>
