<?xml version="1.0" encoding="utf-8"?>
<!-- Generator: Adobe Illustrator 28.0.0, SVG Export Plug-In . SVG Version: 6.00 Build 0)  -->
<svg version="1.1" id="Layer_1" xmlns="http://www.w3.org/2000/svg" xmlns:xlink="http://www.w3.org/1999/xlink" x="0px" y="0px"
	 viewBox="0 0 165 40" style="enable-background:new 0 0 165 40;" xml:space="preserve">
<style type="text/css">
	.st0{clip-path:url(#SVGID_00000157297943474459864560000006100588672300183222_);}
	.st1{fill:#2E2F27;}
</style>
<g>
	<defs>
		<rect id="SVGID_1_" y="0.5" width="165" height="39"/>
	</defs>
	<clipPath id="SVGID_00000132064780905105772520000012127352970323405970_">
		<use xlink:href="#SVGID_1_"  style="overflow:visible;"/>
	</clipPath>
	<g id="logo" style="clip-path:url(#SVGID_00000132064780905105772520000012127352970323405970_);">
		<g id="Group">
			<path id="Vector" class="st1" d="M75,31.4L65.4,5.8h4l7.8,21.8l7.9-21.8H89l-9.6,25.6H75z"/>
			<path id="Vector_2" class="st1" d="M96.8,31.9c-1.8,0-3.3-0.4-4.7-1.2c-1.4-0.8-2.5-1.9-3.2-3.4c-0.8-1.4-1.2-3.1-1.2-5
				c0-1.9,0.4-3.7,1.2-5.1c0.8-1.5,1.9-2.6,3.2-3.4c1.4-0.8,3-1.2,4.8-1.2s3.4,0.4,4.7,1.2c1.3,0.8,2.3,1.9,3,3.2
				c0.7,1.3,1.1,2.8,1.1,4.4c0,0.2,0,0.5,0,0.8c0,0.3,0,0.6-0.1,0.9H90.4v-2.6H102c-0.1-1.5-0.6-2.7-1.5-3.6c-1-0.9-2.2-1.3-3.6-1.3
				c-1,0-1.9,0.2-2.8,0.7c-0.8,0.5-1.5,1.1-2,2c-0.5,0.9-0.8,2-0.8,3.3v1c0,1.4,0.3,2.5,0.8,3.5c0.5,0.9,1.2,1.6,2,2.1
				c0.8,0.5,1.7,0.7,2.7,0.7c1.2,0,2.2-0.3,2.9-0.8c0.8-0.5,1.3-1.2,1.7-2.1h3.7c-0.3,1.1-0.9,2.1-1.6,3c-0.8,0.9-1.7,1.6-2.8,2.1
				C99.5,31.6,98.3,31.9,96.8,31.9L96.8,31.9z"/>
			<path id="Vector_3" class="st1" d="M116,31.9c-1.6,0-3-0.3-4.1-0.8c-1.2-0.5-2.1-1.2-2.8-2.2c-0.7-0.9-1.1-2-1.3-3.3h3.8
				c0.1,0.6,0.4,1.1,0.7,1.6s0.8,0.9,1.5,1.2c0.6,0.3,1.4,0.4,2.2,0.4c0.8,0,1.5-0.1,2-0.3c0.5-0.2,0.9-0.5,1.2-1
				c0.2-0.4,0.4-0.8,0.4-1.3c0-0.7-0.2-1.2-0.5-1.6c-0.3-0.4-0.8-0.6-1.5-0.8c-0.7-0.2-1.4-0.4-2.3-0.6c-0.9-0.1-1.7-0.3-2.5-0.6
				c-0.8-0.3-1.5-0.6-2.1-1c-0.6-0.4-1.1-0.9-1.5-1.5c-0.4-0.6-0.6-1.3-0.6-2.2c0-1,0.3-2,0.8-2.8c0.6-0.8,1.4-1.5,2.4-2
				c1-0.5,2.3-0.7,3.7-0.7c2.1,0,3.7,0.5,5,1.5c1.3,1,2,2.4,2.2,4.1h-3.6c-0.1-0.8-0.5-1.5-1.1-1.9c-0.6-0.5-1.5-0.7-2.5-0.7
				c-1.1,0-1.9,0.2-2.4,0.6c-0.6,0.4-0.8,1-0.8,1.6c0,0.4,0.2,0.8,0.5,1.2c0.3,0.3,0.8,0.6,1.4,0.9c0.6,0.2,1.4,0.4,2.3,0.6
				c1.3,0.2,2.5,0.5,3.5,0.9c1,0.4,1.9,0.9,2.5,1.6c0.6,0.7,0.9,1.7,0.9,3c0,1.1-0.3,2.2-0.9,3c-0.6,0.9-1.5,1.6-2.5,2.1
				C118.8,31.6,117.5,31.9,116,31.9z"/>
			<path id="Vector_4" class="st1" d="M126.7,39.5V13h3.3l0.4,2.9c0.4-0.6,0.9-1.1,1.5-1.6c0.6-0.5,1.3-0.9,2.1-1.2
				c0.8-0.3,1.8-0.5,2.9-0.5c1.8,0,3.3,0.4,4.7,1.3c1.3,0.9,2.4,2,3.1,3.5c0.8,1.5,1.1,3.1,1.1,5c0,1.9-0.4,3.5-1.1,5
				c-0.8,1.5-1.8,2.6-3.2,3.4c-1.3,0.8-2.9,1.2-4.7,1.2c-1.5,0-2.7-0.3-3.8-0.9c-1.1-0.6-2-1.4-2.6-2.4v10.9H126.7L126.7,39.5z
				 M136.3,28.7c1.1,0,2.1-0.3,3-0.8c0.9-0.5,1.6-1.3,2.1-2.3c0.5-1,0.8-2.1,0.8-3.4s-0.3-2.4-0.8-3.4c-0.5-1-1.2-1.7-2.1-2.3
				c-0.9-0.5-1.9-0.8-3-0.8c-1.1,0-2.2,0.3-3,0.8c-0.9,0.5-1.6,1.3-2,2.3c-0.5,1-0.7,2.1-0.7,3.4s0.2,2.4,0.7,3.4
				c0.5,1,1.2,1.7,2,2.3C134.1,28.4,135.1,28.7,136.3,28.7z"/>
			<path id="Vector_5" class="st1" d="M155.3,31.9c-1.5,0-2.8-0.3-3.8-0.8c-1-0.5-1.8-1.2-2.3-2.1s-0.7-1.8-0.7-2.8
				c0-1.2,0.3-2.3,1-3.1c0.6-0.9,1.6-1.5,2.7-2c1.2-0.5,2.6-0.7,4.2-0.7h4.8c0-1.1-0.2-2-0.5-2.7c-0.3-0.7-0.8-1.2-1.4-1.6
				c-0.6-0.4-1.4-0.5-2.4-0.5c-1.1,0-2.1,0.3-2.8,0.8c-0.8,0.5-1.3,1.3-1.5,2.3H149c0.1-1.3,0.6-2.4,1.3-3.3
				c0.8-0.9,1.7-1.6,2.9-2.1c1.2-0.5,2.4-0.8,3.8-0.8c1.7,0,3.2,0.3,4.4,0.9s2.1,1.5,2.7,2.6c0.6,1.1,0.9,2.4,0.9,4v11.4h-3.2
				l-0.3-3.1c-0.3,0.5-0.6,1-1,1.4c-0.4,0.4-0.8,0.8-1.3,1.1c-0.5,0.3-1.1,0.6-1.7,0.8C156.8,31.8,156.1,31.9,155.3,31.9L155.3,31.9
				z M156,28.9c0.8,0,1.5-0.2,2.1-0.5c0.6-0.3,1.2-0.8,1.6-1.3c0.5-0.5,0.8-1.2,1-1.9c0.2-0.7,0.4-1.4,0.4-2.1V23h-4.4
				c-1.1,0-1.9,0.1-2.6,0.4c-0.7,0.3-1.1,0.6-1.4,1c-0.3,0.4-0.4,1-0.4,1.5c0,0.6,0.1,1.1,0.4,1.6c0.3,0.4,0.7,0.8,1.2,1
				C154.6,28.8,155.3,28.9,156,28.9L156,28.9z"/>
		</g>
		<g id="Group_2">
			<path id="Vector_6" class="st1" d="M10.6,26.1H44L33.4,36.7H0V21.6L10.6,11V26.1z"/>
			<path id="Vector_7" class="st1" d="M54.7,0.5v15.1L44,26.1V11H10.6L21.3,0.5H54.7z"/>
		</g>
	</g>
</g>
</svg>
