<svg width="165" height="40" viewBox="0 0 165 40" fill="none" xmlns="http://www.w3.org/2000/svg">
<g id="logo" clip-path="url(#clip0_75_4321)">
<g id="Group">
<path id="Vector" d="M74.9646 31.446L65.3706 5.81958H69.3552L77.1786 27.6389L85.0748 5.81958H88.9865L79.3926 31.446H74.9646Z" fill="#61D790"/>
<path id="Vector_2" d="M96.8099 31.8845C95.0393 31.8845 93.4646 31.4822 92.0873 30.6762C90.71 29.8702 89.6334 28.7493 88.8589 27.3076C88.0845 25.8673 87.6973 24.195 87.6973 22.2923C87.6973 20.3895 88.0845 18.6374 88.8589 17.1851C89.6334 15.7328 90.71 14.5983 92.0873 13.7803C93.4646 12.9622 95.0636 12.554 96.8843 12.554C98.705 12.554 100.266 12.9562 101.57 13.7622C102.873 14.5682 103.883 15.6348 104.597 16.9651C105.31 18.2954 105.667 19.7658 105.667 21.3763C105.667 21.6204 105.661 21.884 105.649 22.1627C105.637 22.4444 105.617 22.7548 105.594 23.0968H90.3911V20.498H101.977C101.903 18.9598 101.387 17.7591 100.427 16.8928C99.4672 16.0265 98.2737 15.5927 96.8478 15.5927C95.8395 15.5927 94.9163 15.8186 94.0796 16.2706C93.2429 16.7226 92.5732 17.3809 92.0691 18.2472C91.5649 19.1135 91.3128 20.2057 91.3128 21.5239V22.5484C91.3128 23.9148 91.5649 25.0688 92.0691 26.0074C92.5732 26.9475 93.2429 27.6556 94.0796 28.1301C94.9163 28.6062 95.8259 28.8443 96.8099 28.8443C97.9913 28.8443 98.9616 28.5881 99.7254 28.0759C100.488 27.5637 101.054 26.8677 101.423 25.9893H105.113C104.793 27.1117 104.252 28.1181 103.49 29.01C102.727 29.9019 101.786 30.6024 100.667 31.1146C99.5477 31.6268 98.2615 31.883 96.8114 31.883L96.8099 31.8845Z" fill="#61D790"/>
<path id="Vector_3" d="M115.998 31.8845C114.423 31.8845 113.046 31.6284 111.865 31.1161C110.683 30.6039 109.749 29.8838 109.06 28.9557C108.371 28.0277 107.953 26.9415 107.806 25.6971H111.57C111.693 26.2831 111.933 26.8195 112.29 27.3076C112.647 27.7957 113.139 28.1859 113.766 28.4797C114.393 28.7719 115.137 28.9196 115.998 28.9196C116.81 28.9196 117.48 28.8036 118.009 28.5716C118.537 28.3396 118.924 28.0232 119.17 27.6194C119.416 27.2172 119.539 26.7833 119.539 26.3193C119.539 25.6368 119.374 25.1171 119.041 24.763C118.709 24.409 118.217 24.1288 117.565 23.9209C116.914 23.7145 116.132 23.5246 115.222 23.3529C114.361 23.2068 113.53 23.0049 112.732 22.7488C111.931 22.4926 111.219 22.1687 110.592 21.7785C109.965 21.3884 109.467 20.8942 109.098 20.2961C108.729 19.698 108.545 18.9598 108.545 18.0815C108.545 17.0329 108.828 16.0868 109.394 15.2446C109.959 14.4025 110.765 13.7441 111.811 13.2681C112.856 12.792 114.092 12.554 115.52 12.554C117.586 12.554 119.246 13.0421 120.502 14.0183C121.756 14.9946 122.494 16.3731 122.716 18.1553H119.137C119.038 17.3252 118.669 16.6849 118.03 16.2329C117.391 15.781 116.542 15.555 115.483 15.555C114.425 15.555 113.614 15.7629 113.048 16.1772C112.481 16.593 112.199 17.1414 112.199 17.8254C112.199 18.2653 112.358 18.6555 112.679 18.9975C112.997 19.3394 113.471 19.6257 114.1 19.8577C114.727 20.0897 115.495 20.3036 116.407 20.498C117.709 20.742 118.879 21.0479 119.911 21.414C120.944 21.7801 121.768 22.3164 122.383 23.0245C122.998 23.7325 123.305 24.7449 123.305 26.0632C123.329 27.2112 123.041 28.2236 122.438 29.1019C121.835 29.9802 120.986 30.6642 119.892 31.1523C118.797 31.6404 117.498 31.8845 115.998 31.8845Z" fill="#61D790"/>
<path id="Vector_4" d="M126.697 39.5V12.9953H130.018L130.387 15.8502C130.781 15.2898 131.273 14.758 131.863 14.2578C132.454 13.7576 133.16 13.3494 133.985 13.0315C134.809 12.7151 135.773 12.5554 136.882 12.5554C138.653 12.5554 140.209 12.9833 141.55 13.8375C142.891 14.6917 143.935 15.8457 144.687 17.2965C145.437 18.7488 145.812 20.403 145.812 22.2576C145.812 24.1121 145.431 25.7663 144.669 27.2187C143.907 28.671 142.854 29.8114 141.513 30.6415C140.173 31.4716 138.616 31.8859 136.845 31.8859C135.394 31.8859 134.115 31.5982 133.008 31.0257C131.901 30.4532 131.028 29.6532 130.389 28.6273V39.5H126.699H126.697ZM136.255 28.7011C137.386 28.7011 138.388 28.4329 139.261 27.8951C140.135 27.3588 140.824 26.6025 141.328 25.6247C141.832 24.6485 142.084 23.514 142.084 22.2199C142.084 20.9258 141.832 19.7974 141.328 18.8332C140.824 17.869 140.135 17.1127 139.261 16.5628C138.388 16.0129 137.385 15.7388 136.255 15.7388C135.125 15.7388 134.083 16.0129 133.21 16.5628C132.337 17.1112 131.654 17.869 131.162 18.8332C130.67 19.7974 130.424 20.9258 130.424 22.2199C130.424 23.514 130.67 24.6485 131.162 25.6247C131.654 26.601 132.336 27.3573 133.21 27.8951C134.083 28.4329 135.098 28.7011 136.255 28.7011Z" fill="#61D790"/>
<path id="Vector_5" d="M155.332 31.8844C153.806 31.8844 152.539 31.6283 151.531 31.1161C150.523 30.6039 149.772 29.9139 149.28 29.0476C148.788 28.1813 148.542 27.2488 148.542 26.2469C148.542 25.0266 148.861 23.9826 149.502 23.1163C150.141 22.2501 151.053 21.5857 152.232 21.1217C153.414 20.6576 154.828 20.4256 156.475 20.4256H161.309C161.309 19.3515 161.148 18.4611 160.829 17.753C160.508 17.0449 160.036 16.5146 159.407 16.1606C158.78 15.8066 157.986 15.6303 157.028 15.6303C155.921 15.6303 154.973 15.8924 154.187 16.4167C153.399 16.9425 152.907 17.7169 152.711 18.7413H149.021C149.168 17.4487 149.618 16.3429 150.368 15.4284C151.118 14.5124 152.084 13.8059 153.265 13.3057C154.446 12.8055 155.701 12.5554 157.029 12.5554C158.776 12.5554 160.24 12.8612 161.421 13.4714C162.602 14.0816 163.494 14.9418 164.097 16.0521C164.699 17.1624 165 18.4867 165 20.0249V31.4475H161.79L161.495 28.335C161.225 28.8231 160.905 29.2871 160.536 29.7255C160.167 30.164 159.729 30.5436 159.225 30.86C158.721 31.1779 158.143 31.4279 157.491 31.6102C156.84 31.794 156.12 31.8844 155.333 31.8844H155.332ZM156.033 28.9195C156.82 28.9195 157.534 28.7614 158.173 28.4435C158.812 28.1271 159.359 27.6932 159.814 27.1433C160.27 26.5949 160.613 25.9712 160.847 25.2767C161.081 24.5807 161.21 23.8666 161.234 23.1344V23.0244H156.843C155.784 23.0244 154.929 23.1525 154.278 23.4086C153.626 23.6647 153.153 24.0127 152.857 24.4511C152.562 24.891 152.413 25.4033 152.413 25.9893C152.413 26.5754 152.554 27.1177 152.837 27.5456C153.119 27.9734 153.532 28.3094 154.073 28.5519C154.613 28.796 155.266 28.918 156.029 28.918L156.033 28.9195Z" fill="#61D790"/>
</g>
<g id="Group_2">
<path id="Vector_6" d="M10.6296 26.1114H44.0368L33.4073 36.6572H0V21.5917L10.6296 11.0459V26.1114Z" fill="#61D790"/>
<path id="Vector_7" d="M54.6662 0.5V15.5655L44.0367 26.1113V11.0458H10.6294L21.259 0.5H54.6662Z" fill="#61D790"/>
</g>
</g>
<defs>
<clipPath id="clip0_75_4321">
<rect width="165" height="39" fill="white" transform="translate(0 0.5)"/>
</clipPath>
</defs>
</svg>
