<svg width="400" height="122" viewBox="0 0 400 122" fill="none" xmlns="http://www.w3.org/2000/svg">
<path d="M74.078 77.2015C71.7607 78.4889 69.0143 78.4889 66.697 77.2015C64.3797 75.9141 63.0065 73.511 63.0065 70.8504C63.0065 68.2757 64.3797 65.7867 66.697 64.4993L111.927 38.4083L62.8348 10L21.5527 33.8595C16.9181 36.5201 14 41.5839 14 46.9909C14 52.3979 16.7464 57.2041 21.381 59.9506C16.8322 62.697 14 67.589 14 72.9102C14 78.4031 16.8323 83.2951 21.5527 86.0416C21.7243 86.1274 62.8348 109.987 62.8348 109.987C65.2379 111.36 67.8127 112.047 70.3875 112.047C72.9623 112.047 75.6229 111.36 77.9401 109.987L111.927 90.3329L104.117 85.8699L74.078 103.207C71.7607 104.494 69.0143 104.494 66.697 103.207C64.3797 101.919 63.0065 99.5162 63.0065 96.8556C63.0065 94.2808 64.3797 91.7919 66.697 90.5045L77.9401 83.9817L111.927 64.3277L104.117 59.8647L74.078 77.2015Z" fill="#1F2126"/>
<path d="M151.634 99.7093V19.9343H201.507V31.6495H166.473V53.5179H194.59V64.6752H166.473V87.9941H203.404V99.7093H151.634Z" fill="#1F2126"/>
<path d="M214.293 99.7093V20.3634L227.794 14.3556V99.7093H214.293Z" fill="#1F2126"/>
<path d="M239.434 99.7093V47.3642L252.935 41.3564V99.7093H239.434ZM246.017 31.7611C241.554 31.7611 237.984 28.4139 237.984 24.0625C237.984 19.5996 241.554 16.2524 246.017 16.2524C250.48 16.2524 254.05 19.5996 254.05 24.0625C254.05 28.4139 250.48 31.7611 246.017 31.7611Z" fill="#1F2126"/>
<path d="M292.366 100.825C275.63 100.825 262.91 89.8908 262.91 71.2581V70.3655C262.91 51.8443 276.076 40.1291 292.366 40.1291C305.308 40.1291 317.47 45.9309 319.032 61.9975H305.978C304.862 54.1873 299.729 50.9517 292.589 50.9517C283.328 50.9517 276.745 58.0924 276.745 70.1423V71.0349C276.745 83.7543 282.993 90.4487 292.923 90.4487C300.064 90.4487 306.201 86.2089 306.982 77.9525H319.366C318.362 91.3413 308.209 100.825 292.366 100.825Z" fill="#1F2126"/>
<path d="M328.752 99.7093V47.3642L342.252 41.3564V99.7093H328.752ZM335.335 31.7611C330.872 31.7611 327.301 28.4139 327.301 24.0625C327.301 19.5996 330.872 16.2524 335.335 16.2524C339.798 16.2524 343.368 19.5996 343.368 24.0625C343.368 28.4139 339.798 31.7611 335.335 31.7611Z" fill="#1F2126"/>
<path d="M376.851 100.713C365.247 100.713 359.222 94.4653 359.222 83.4196V51.5096H351.412V41.3564H359.222V28.5254L372.723 22.5176V41.3564H385.554V51.5096H372.723V82.1923C372.723 87.3246 375.177 89.6677 379.417 89.6677C382.095 89.6677 384.103 89.333 386 88.5519V99.263C383.88 100.044 380.979 100.713 376.851 100.713Z" fill="#1F2126"/>
</svg>
