<?xml version="1.0" encoding="utf-8"?>
<!-- Generator: Adobe Illustrator 27.8.1, SVG Export Plug-In . SVG Version: 6.00 Build 0)  -->
<svg version="1.1" id="Layer_1" xmlns="http://www.w3.org/2000/svg" xmlns:xlink="http://www.w3.org/1999/xlink" x="0px" y="0px"
	 viewBox="0 0 265.9 32.4" style="enable-background:new 0 0 265.9 32.4;" xml:space="preserve">
<style type="text/css">
	.st0{fill:#020202;}
</style>
<path class="st0" d="M31.2,16.6L31.2,16.6L31.2,16.6L31.2,16.6c0,0.1,0,0.1,0,0.1l0,0l0,0c0,0,0,0.1-0.1,0.1
	c-0.1,0.3-0.4,0.4-0.7,0.4s-0.4-0.1-0.6-0.4c0-0.1-0.1-0.1-0.1-0.3l0,0l0,0l0,0l0,0l0,0l0,0l0,0l0,0l0,0l0,0c0-0.1,0-0.1,0.1-0.3
	c0.1-0.3,0.3-0.4,0.6-0.4s0.6,0.1,0.7,0.4c0,0,0,0.1,0.1,0.1l0,0l0,0C31.2,16.4,31.2,16.4,31.2,16.6L31.2,16.6
	C31.2,16.4,31.2,16.6,31.2,16.6L31.2,16.6z M26.7,14c-0.4,0-0.9-0.3-0.9-0.9l0,0c0-0.4,0.4-0.9,0.9-0.9l0,0c0.4,0,0.9,0.4,0.9,0.9
	C27.6,13.6,27.2,14,26.7,14L26.7,14L26.7,14z M26.7,20.8c-0.4,0-0.9-0.4-0.9-0.9l0,0c0-0.4,0.4-0.9,0.9-0.9l0,0
	c0.4,0,0.9,0.4,0.9,0.9C27.6,20.3,27.2,20.8,26.7,20.8L26.7,20.8z M24.6,16.6c0-0.6,0.6-1.2,1.2-1.2c0.6,0,1.2,0.6,1.2,1.2
	c0,0.6-0.6,1.2-1.2,1.2S24.6,17.2,24.6,16.6L24.6,16.6z M23.3,10.5c-0.4,0-0.9-0.4-0.9-0.9c0-0.4,0.4-0.9,0.9-0.9l0,0
	c0.4,0,0.9,0.3,0.9,0.9l0,0C24.2,10.1,23.7,10.5,23.3,10.5L23.3,10.5L23.3,10.5z M23.3,24.2c-0.4,0-0.9-0.3-0.9-0.9l0,0
	c0-0.4,0.4-0.9,0.9-0.9c0.4,0,0.9,0.3,0.9,0.9l0,0C24.2,23.8,23.7,24.2,23.3,24.2L23.3,24.2L23.3,24.2z M21.1,19.9
	c0-0.7,0.6-1.2,1.2-1.2c0.7,0,1.2,0.6,1.2,1.2c0,0.7-0.6,1.2-1.2,1.2l0,0C21.7,21,21.1,20.6,21.1,19.9L21.1,19.9z M22.4,14.4
	c-0.7,0-1.2-0.6-1.2-1.2c0-0.7,0.6-1.2,1.2-1.2c0.7,0,1.2,0.6,1.2,1.2l0,0C23.6,13.8,23,14.4,22.4,14.4 M19.8,27.7
	c-0.4,0-0.9-0.4-0.9-0.9s0.4-0.9,0.9-0.9c0.4,0,0.9,0.4,0.9,0.9C20.6,27.2,20.3,27.7,19.8,27.7L19.8,27.7z M17.7,23.5
	c0-0.7,0.6-1.2,1.2-1.2c0.7,0,1.2,0.6,1.2,1.2c0,0.7-0.6,1.2-1.2,1.2l0,0C18.1,24.7,17.7,24.1,17.7,23.5 M15.4,28.1
	c-0.7,0-1.2-0.6-1.2-1.2c0-0.6,0.6-1.2,1.2-1.2c0.7,0,1.2,0.6,1.2,1.2l0,0C16.5,27.5,16.1,28.1,15.4,28.1L15.4,28.1L15.4,28.1z
	 M19.8,7.1c-0.4,0-0.9-0.4-0.9-0.9c0-0.4,0.3-0.9,0.9-0.9l0,0c0.4,0,0.9,0.3,0.9,0.9l0,0C20.6,6.6,20.3,7.1,19.8,7.1L19.8,7.1z
	 M18.8,10.8c-0.7,0-1.2-0.6-1.2-1.2c0-0.7,0.6-1.2,1.2-1.2l0,0c0.7,0,1.2,0.6,1.2,1.2l0,0C20,10.2,19.5,10.8,18.8,10.8 M15.4,7.4
	c-0.7,0-1.2-0.6-1.2-1.2c0-0.7,0.6-1.2,1.2-1.2l0,0c0.7,0,1.2,0.6,1.2,1.2l0,0C16.5,6.8,15.9,7.4,15.4,7.4L15.4,7.4z M39.4,16.3
	L39.4,16.3l-15-15H8.6l0.6,0.4l0.1,0.1c0.4,0.6,0.6,1.3,0.1,1.6l0,0L9.2,3.8C8.9,4,8.7,4.3,8.9,4.6c0,0.6,0.6,0.9,1,0.9
	c0.3,0,0.4-0.1,0.7-0.3l0.3-0.3l0,0c0.4-0.4,1.2-0.3,1.7,0.3c0.6,0.6,0.7,1.3,0.3,1.7l0,0l0,0l-0.3,0.3c-0.3,0.1-0.3,0.4-0.3,0.7
	c0,0.6,0.4,1,1,1l0,0c0.3,0,0.6-0.1,0.7-0.3l0.3-0.3l0,0c0.6-0.3,1.3-0.1,1.7,0.3c0.4,0.4,0.6,1.2,0.3,1.7l-0.3,0.3
	c-0.3,0.1-0.3,0.4-0.3,0.7c0,0.6,0.4,1,1,1l0,0c0.3,0,0.6-0.1,0.7-0.3l0.4-0.4c0.4-0.4,1.2-0.3,1.7,0.3c0.6,0.6,0.7,1.3,0.3,1.7l0,0
	l0,0L19.7,14c-0.3,0.1-0.3,0.4-0.3,0.7c0,0.6,0.4,1,1,1c0.1,0,0.3,0,0.3,0c0.1,0,0.3-0.1,0.4-0.3c0.3-0.4,0.7-0.6,1.2-0.6
	c0.7,0,1.3,0.4,1.4,1.2v0.1l0,0c0,0,0,0,0,0.1l0,0c0,0,0,0,0,0.1c0,0,0,0,0,0.1l0,0v0.1l0,0v0.1C23.6,17.6,23,18,22.3,18
	c-0.4,0-0.9-0.1-1.2-0.6c-0.1-0.1-0.3-0.3-0.4-0.3c-0.1,0-0.3,0-0.3,0c-0.6,0-1,0.4-1,1c0,0.3,0.1,0.6,0.3,0.7l0.3,0.3l0,0l0,0
	c0.4,0.4,0.3,1.2-0.3,1.7s-1.3,0.7-1.7,0.3l-0.4-0.3c-0.1-0.1-0.4-0.3-0.7-0.3c-0.6,0-1,0.4-1,1c0,0.3,0.1,0.6,0.3,0.7l0.3,0.3
	c0.3,0.6,0.1,1.3-0.3,1.7c-0.4,0.4-1.2,0.6-1.7,0.3l0,0l-0.3-0.3c-0.1-0.1-0.4-0.3-0.7-0.3c-0.6,0-1,0.4-1,1c0,0.3,0.1,0.6,0.3,0.7
	l0.3,0.3l0,0l0,0c0.4,0.4,0.3,1.2-0.3,1.7c-0.6,0.6-1.3,0.7-1.7,0.3l0,0l-0.3-0.3c-0.1-0.1-0.4-0.3-0.7-0.3c-0.6,0-1,0.4-1,0.9
	c0,0.3,0.1,0.7,0.3,0.9l0.3,0.3l0,0c0.4,0.4,0.3,1.2-0.1,1.6l-0.1,0.1l-0.6,0.4h15.8L39.3,17l0.1-0.1c0.1-0.1,0.1-0.1,0.1-0.3
	C39.6,16.4,39.4,16.3,39.4,16.3"/>
<path class="st0" d="M10.6,24.7c-0.6,0-1.2,0.4-1.2,1.2c0,0.6,0.4,1.2,1.2,1.2l0,0c0.6,0,1.2-0.4,1.2-1.2l0,0
	C11.6,25.1,11.2,24.7,10.6,24.7L10.6,24.7z M10.9,22.2c0-0.4-0.4-0.9-0.9-0.9s-0.9,0.4-0.9,0.9c0,0.4,0.4,0.9,0.9,0.9
	S10.9,22.6,10.9,22.2L10.9,22.2z M10.6,6.2c-0.6,0-1.2,0.4-1.2,1.2l0,0c0,0.6,0.4,1.2,1.2,1.2c0.6,0,1.2-0.4,1.2-1.2
	C11.6,6.8,11.2,6.2,10.6,6.2L10.6,6.2L10.6,6.2z M14.4,18.7c0-0.4-0.3-0.9-0.9-0.9l0,0c-0.4,0-0.9,0.4-0.9,0.9s0.3,0.9,0.9,0.9
	C14.1,19.5,14.4,19.2,14.4,18.7L14.4,18.7z M17.7,17.6c-0.6,0-1.2,0.4-1.2,1.2l0,0c0,0.6,0.4,1.2,1.2,1.2l0,0c0.6,0,1.2-0.4,1.2-1.2
	C18.7,18,18.2,17.6,17.7,17.6L17.7,17.6z M14.1,9.8c-0.6,0-1.2,0.4-1.2,1.2c0,0.6,0.4,1.2,1.2,1.2c0.6,0,1.2-0.4,1.2-1.2
	C15.2,10.2,14.6,9.8,14.1,9.8L14.1,9.8z M7,2.8c-0.6,0-1.2,0.4-1.2,1.2l0,0c0,0.6,0.4,1.2,1.2,1.2l0,0c0.6,0,1.2-0.4,1.2-1.2l0,0
	C8.2,3.2,7.6,2.8,7,2.8L7,2.8z M14.1,21c-0.6,0-1.2,0.4-1.2,1.2c0,0.6,0.4,1.2,1.2,1.2c0.6,0,1.2-0.4,1.2-1.2
	C15.2,21.6,14.6,21,14.1,21L14.1,21z M6.6,8.2c0.4,0,0.9-0.4,0.9-0.9c0-0.4-0.4-0.9-0.9-0.9l0,0c-0.4,0-0.9,0.3-0.9,0.9l0,0
	C5.7,7.8,6.1,8.2,6.6,8.2L6.6,8.2L6.6,8.2z M13.6,15.1c0.4,0,0.9-0.3,0.9-0.9l0,0c0-0.4-0.4-0.9-0.9-0.9c-0.4,0-0.9,0.4-0.9,0.9
	C12.8,14.9,13.1,15.1,13.6,15.1 M17.7,15.6c0.6,0,1.2-0.4,1.2-1.2l0,0c0-0.6-0.4-1.2-1.2-1.2s-1.2,0.4-1.2,1.2
	C16.5,15,17.1,15.6,17.7,15.6L17.7,15.6z M10,11.7c0.4,0,0.9-0.4,0.9-0.9c0-0.4-0.4-0.9-0.9-0.9s-0.9,0.4-0.9,0.9
	C9.2,11.4,9.6,11.7,10,11.7 M3.1,28.4c-0.4,0-0.9,0.4-0.9,0.9c0,0.4,0.3,0.9,0.9,0.9l0,0c0.4,0,0.9-0.3,0.9-0.9l0,0
	C3.8,28.7,3.6,28.4,3.1,28.4 M6.6,26.5c0.4,0,0.9-0.3,0.9-0.9l0,0c0-0.4-0.4-0.9-0.9-0.9c-0.4,0-0.9,0.4-0.9,0.9
	C5.7,26.1,6.1,26.5,6.6,26.5L6.6,26.5L6.6,26.5z M3.1,3.2C2.7,3.2,2.3,3.6,2.3,4l0,0c0,0.4,0.4,0.9,0.9,0.9S4,4.6,4,4
	C3.8,3.5,3.6,3.2,3.1,3.2L3.1,3.2z M7,28.1c-0.6,0-1.2,0.4-1.2,1.2l0,0c0,0.6,0.4,1.2,1.2,1.2l0,0c0.6,0,1.2-0.4,1.2-1.2l0,0
	C8.2,28.7,7.6,28.1,7,28.1L7,28.1z"/>
<path class="st0" d="M48.9,4.6V28h3.2v-9.2h15.3c1.6,0,2.7,0.3,3.5,0.7c0.9,0.6,1.2,1.7,1.2,3.5v5.2h2.9v-5.9c0-1-0.3-2-0.9-2.7
	c-0.6-0.9-1.7-1.3-3.2-1.7c1.2,0,2.2-0.4,3-1.2c0.9-0.7,1.2-1.9,1.2-3.3v-1.9c0-2.4-0.4-4-1.4-5c-1.2-1.2-3.2-1.6-6.3-1.6L48.9,4.6
	 M70.8,15.3c-0.7,0.6-2,0.7-3.7,0.7h-15V7.1h14.3c2.3,0,3.9,0.3,4.6,0.7s1.2,1.4,1.2,2.7v2.2C72,14,71.7,14.9,70.8,15.3"/>
<path class="st0" d="M94.2,27.8c0.7-0.3,1.3-0.9,1.7-1.6V28h2.7V16.9c0-2.3-0.7-3.9-2.3-4.8c-1.3-0.7-3.3-1-6.2-1h-4.3
	c-2.4,0-4.2,0.3-5.3,1c-1,0.7-1.6,1.7-1.6,3.3v0.9h2.7v-0.6c0-0.6,0.3-1.3,0.7-1.6c0.6-0.4,1.7-0.6,3.3-0.6h4c2.3,0,3.9,0.1,4.8,0.6
	c0.9,0.4,1.3,1.3,1.3,2.7V20c-0.4-0.7-1.2-1.3-1.9-1.6C92.6,18.2,91.3,18,90,18h-4.5c-2.7,0-4.5,0.3-5.5,0.7
	c-1.3,0.6-1.9,1.7-1.9,3.5v1.2c0,1.7,0.3,2.9,1,3.6c0.9,0.9,2.2,1.3,4.2,1.3H90C92,28.3,93.5,28.1,94.2,27.8 M94.5,20.6
	c0.9,0.3,1.4,1.2,1.3,2v0.7c0,0.9-0.6,1.7-1.4,2c-1,0.3-2.7,0.4-5.5,0.4h-3.6c-1.9,0-3-0.1-3.6-0.6c-0.6-0.4-0.9-1-0.9-2v-0.6
	c0-1,0.3-1.7,1-2c0.6-0.3,1.9-0.6,3.6-0.6h4.2C92,20.2,93.6,20.3,94.5,20.6"/>
<polygon class="st0" points="99.5,11.4 108.7,28 111.9,28 121.1,11.4 118.2,11.4 110.3,25.7 102.4,11.4 "/>
<path class="st0" d="M125,12.3c-1.7,1-2.6,2.9-2.6,5.6v3.6c0,2.2,0.6,3.7,1.4,4.9c1.2,1.3,3.2,1.9,6.2,1.9h5c2.7,0,4.8-0.3,6.1-1
	c1.4-0.7,2.2-2,2.2-3.9v-0.3h-2.7c0,1.2-0.4,2-1.2,2.4c-0.7,0.3-1.9,0.6-3.7,0.6h-3.7c-2.4,0-4.2-0.3-5.2-1c-1-0.7-1.4-1.9-1.4-3.7
	v-1h18.2v-1.9c0-2.7-0.9-4.6-2.4-5.8c-1.3-0.9-3.3-1.3-6.1-1.3h-4.5C128,11.3,126.2,11.5,125,12.3 M139.4,14.6
	c0.7,0.6,1.2,1.4,1.2,2.3V18h-15.4c0-1.9,0.4-3,1.2-3.6c0.7-0.6,2.3-0.9,4.5-0.9h4C137,13.4,138.4,13.8,139.4,14.6"/>
<path class="st0" d="M146.6,11.4v16.4h2.7v-9.4c0-2,0.6-3.3,1.6-4c1-0.7,3.2-1,6.3-1h0.7c2.4,0,4.2,0.4,5,1.2c0.7,0.6,1,1.6,1,2.9
	V28h2.7V16.9c0.1-1.4-0.4-2.9-1.4-3.9c-1.2-1.2-2.9-1.7-5.3-1.7h-4.2c-1.4,0-2.9,0.1-4.3,0.7c-1,0.4-1.9,1.3-2.3,2.4v-2.9
	L146.6,11.4z"/>
<path class="st0" d="M170.8,4.6V28h3.2v-9.2h15.3c3.2,0,5.2-0.7,6.2-2c0.7-1,1-2.9,1-5.9c0-2.6-0.6-4.3-1.7-5.2
	c-1-0.7-2.6-1.2-4.9-1.2L170.8,4.6 M192.3,7.9c0.7,0.4,1,1.4,1,2.7v2.2c0,1.2-0.3,2-1,2.6c-0.9,0.6-1.9,0.9-3,0.7h-15.4V7.2h15.3
	C190.6,7.2,191.6,7.4,192.3,7.9"/>
<path class="st0" d="M213.3,27.8c0.7-0.3,1.3-0.9,1.7-1.6V28h2.7V16.9c0-2.3-0.9-3.9-2.3-4.8c-1.3-0.7-3.3-1-6.2-1H205
	c-2.4,0-4.2,0.3-5.3,1c-1,0.7-1.6,1.7-1.6,3.3v0.9h2.7v-0.6c0-0.6,0.3-1.3,0.7-1.6c0.6-0.4,1.7-0.6,3.3-0.6h4c2.3,0,3.9,0.1,4.8,0.6
	c0.9,0.4,1.3,1.3,1.3,2.7V20c-0.4-0.7-1.2-1.3-1.9-1.6c-1.3-0.3-2.6-0.4-3.9-0.4h-4.5c-2.7,0-4.6,0.3-5.5,0.7
	c-1.3,0.6-1.9,1.7-1.9,3.5v1.2c0,1.7,0.3,2.9,1,3.6c0.9,0.9,2.2,1.3,4.2,1.3h6.6C211.2,28.3,212.6,28.1,213.3,27.8 M213.6,20.6
	c0.9,0.3,1.4,1.2,1.3,2v0.7c0,0.9-0.6,1.7-1.4,2c-1,0.3-2.7,0.4-5.5,0.4h-3.6c-1.9,0-3-0.1-3.6-0.6c-0.6-0.4-0.9-1-0.9-2v-0.6
	c0-1,0.3-1.7,1-2c0.6-0.3,1.9-0.6,3.6-0.6h4.2C211.2,20.2,212.8,20.3,213.6,20.6"/>
<path class="st0" d="M223.3,12.3c-1.7,1-2.6,2.9-2.6,5.6v3.7c0,2.6,0.9,4.5,2.4,5.6c1.3,0.7,2.9,1.2,4.3,1h6.2
	c2.6,0,4.5-0.4,5.5-1.3c1.2-0.9,1.7-2.4,1.7-4.5v-0.4h-2.6v0.6c0.1,1.2-0.4,2.2-1.4,2.7c-1,0.6-2.2,0.7-3.3,0.7h-4.6
	c-1.9,0-3.2-0.3-4-0.9c-1-0.7-1.6-1.9-1.6-3.6V18c0-1.4,0.3-2.6,0.9-3.2c0.7-0.9,2-1.3,4.2-1.3h5c1.6,0,2.6,0.3,3.5,0.7
	c0.7,0.4,1.2,1.4,1.2,2.7v0.4h2.6V17c0-1.9-0.6-3.2-1.7-4.2s-2.9-1.4-5.5-1.4h-4.6C226.4,11.3,224.6,11.5,223.3,12.3"/>
<polygon class="st0" points="243.9,4.6 243.9,28 246.6,28 246.6,20 247.9,20 259.7,28 263.9,28 264,27.8 250.6,18.9 261.9,11.5 
	261.7,11.4 257.6,11.4 248.1,17.7 246.6,17.7 246.6,4.6 "/>
</svg>
