<?xml version="1.0" encoding="utf-8"?>
<!-- Generator: Adobe Illustrator 26.0.3, SVG Export Plug-In . SVG Version: 6.00 Build 0)  -->
<svg version="1.1" id="Layer_1" xmlns="http://www.w3.org/2000/svg" xmlns:xlink="http://www.w3.org/1999/xlink" x="0px" y="0px"
	 viewBox="0 0 669.9 262.7" style="enable-background:new 0 0 669.9 262.7;" xml:space="preserve">
<style type="text/css">
	.st0{fill:#007782;}
</style>
<g>
	<path class="st0" d="M171.9,41.3c-1.9,0-4.2,1.6-10.4,7c-2.2,0.8-4.6,0.2-7.4,4.5c-15.8,22.7-28.1,107.6-38.6,132.1
		c-2.1-10.6-6.5-79.6-8.2-98.5c-0.2-3.5,0.2-7.9,0.2-10.5c0-17.4-3.8-26.2-21.2-26.2c-8.8,0-17.5,3.2-22.1,9c-2.2,3-3,5.2-3,10.6
		c0,36.1,8.6,95.3,18.2,133.9c3,12.1,13.8,14.4,24,14.4c4.8,0,9.6-0.6,16.4-4c23.6-11.5,29.9-42.9,36-73.4
		c1.1-5.5,6.6-32.1,9.2-46.1c3.5-19.1,7.5-40.7,9.9-48.6C175.7,43.1,174.2,41.3,171.9,41.3z M572.7,127.7
		c-3.2,23.9-15.4,64.8-29,64.8c-3.9,0-5.9-4.5-5.9-10C537.8,166.8,548.4,135.4,572.7,127.7z M454,154.6c3.1-14,16.5-35.4,28.5-35.4
		c2.2,0,3.4,1.4,3.1,4.8C484.9,134.6,477,152.2,454,154.6z M613.3,52.1c0-4.2-2.6-7.9-8.5-7.9c-4.8,0-10.4,2.4-13.9,5.4
		c-4.2-1-9.8,2.2-10.5,6c-3.6,16.9-5.2,34.5-7.2,49c-24.2,2.2-42.6,15.6-51.6,37.5c-1.5,3.6-3.2,7.1-5.2,10.5
		c-12.8,21.8-28.8,34.4-44.5,34.4c-11.5,0-18.1-8.1-18.9-19.1c4.1,1,8,1.5,11.6,1.5c26,0,39.2-24.6,39.2-41.2
		c0-16.1-10.8-24.3-26.8-24.3c-29.2,0.2-53.5,35-53.5,66.8c0,22.6,10.1,40.5,33.1,40.5c17.8,0,42.4-9.8,59.1-35
		c-1.1,17.9,3.6,35.4,18.9,37.1c8.6,0.8,24.2-4.6,34.6-25.8c0.8,17.6,6.4,26.1,10.9,26.1c8.1,0,13.2-2.9,19.5-3.2
		c2-0.1,2.6-1.9,2.6-3.5c0-2.6-3-12.2-3-26c0-21.1,4.2-54.1,13.1-121.4C612.7,57.9,613.3,54.6,613.3,52.1z M213.3,95.2
		c7.8,0,14.2-6.4,14.2-13.4c0-9.2-2.8-18-13.2-18c-7.1,0-19.4,8-19.4,14.9C194.9,86.8,203.8,95.2,213.3,95.2z M426,89.6
		c-4.5-0.9-9.4-1-14.4-1c0.2-3.5-0.1-10.2,0-16.1c0-0.9,0.4-2.5,0.4-4.5s-0.4-4.2-1.8-6.2c0.5-1.4,0.8-2.6,0.8-3.5
		c0-4.8-7.1-6.6-13.8-6.6c-5.8,0-11.2,2.1-13.1,8.4c-3.1,11.1-4,15.9-4.8,27.5c-7,0.4-20.6,0.5-20.3,4.8
		c0.8,11.1,11.5,14.7,19.2,14.9c-0.9,30.5-26.4,79.9-34.3,79.9c-1.5,0-2.1-2.4-2.1-7.5c0-10,2.1-23.4,2.1-37.6
		c0-8.8-0.9-16.8-3.6-21.9c-3.4-6.1-14.6-9.1-23.4-9.1c-3.4,0-6.2,0.4-8.4,1.2c-14.6,5.9-26.9,39.1-31.5,46.5
		c2.2-20.1,5.5-35.8,5.5-44c0-4.6-4.1-8.7-8.7-8.7c-1.8,0-3.4,0.6-4.9,2c-6.6,2.4-15.4,0-16.9,9.4c-0.4,2.5-0.9,5.5-1.1,8.9
		c-1.6,24.4-26,69.6-38.5,69.6c-3.1,0-3.8-4-3.8-9.1c0-17,8.8-52.8,9-60c0.5-1.1,0.8-2.4,0.8-3.5c0-6.8-8-13.4-16.2-13.4
		c-2.4,0-4.1-0.5-6-0.5c-1.2,0-2.5,0.2-3.9,1.1c-9.1,5.8-17.1,39-17.1,59.4c0,22.5,13.1,40.5,33.9,40.5c14.9,0,27.5-13.6,38.2-32.4
		c0,2.9-0.6,17,0,25c0.4,5.5,6.1,3.1,13,5.9c2.6,2.2,5,3.2,7.1,3.2c3.5,0,6.2-3.1,8.2-8.5c8.2-22.5,28-73,33.6-73
		c4.2,0-0.1,32.5-0.1,48.6c0,9.2,0.9,17.1,4.1,20.5c5.9,6.2,12.2,9.2,18.8,9.2c14.6,0,30-15.6,42.6-44.6
		c-0.8,12.4-0.9,16.2-0.9,20.5c0,7.2,0.4,15.2,1.4,21c0.6,2.8,0.9,4.8,3.4,6.6c3.4,1.9,6.5,3,8.2,4.2c3.9,1.9,3.6,2.9,9,2.9
		c1.9,0,4.5-1.8,4.9-6.1c4.8-47.5,9.8-106.1,9.8-106.1c3.2-0.1,12.3-2.4,20.8-3.4c3.6-0.4,7.9-2.6,7.9-5.2
		C439.1,96.2,433.4,91.2,426,89.6z"/>
</g>
</svg>
