<svg id="Layer_1" data-name="Layer 1" xmlns="http://www.w3.org/2000/svg" viewBox="0 0 500 500"><title>api</title><path fill="#3F9DD8" d="M476.29,252.65a87.07,87.07,0,0,0-54.39-52.88,167.56,167.56,0,0,0-58.59-74.15,174.88,174.88,0,0,0-179-13.56,84.18,84.18,0,0,0-24-3.57,86.62,86.62,0,0,0-84,65.83h0a111.1,111.1,0,0,0-39.82,36.46A110.3,110.3,0,0,0,128.7,381.72a107.07,107.07,0,0,0,16.07-1.22,172.28,172.28,0,0,0,49.43,31.94,175.33,175.33,0,0,0,144.34-3.54,171.31,171.31,0,0,0,53.14-40.12c.92,0,1.9.09,2.93.09a86.82,86.82,0,0,0,81.68-116.22ZM447,304.19a57.18,57.18,0,0,1-20.63,25,56.54,56.54,0,0,1-31.78,9.7,23.16,23.16,0,0,1-2.83-.21c-1.2-.14-2.66-.36-4.41-.59a15,15,0,0,0-13.57,5.45A141.26,141.26,0,0,1,325.47,382a145.33,145.33,0,0,1-119.55,2.92,142.23,142.23,0,0,1-45.63-31,15,15,0,0,0-13.93-4.11A80.33,80.33,0,0,1,95.73,198.13a15,15,0,0,0,8.64-11.39,57.13,57.13,0,0,1,18.9-34.43,55.53,55.53,0,0,1,57.07-10,15,15,0,0,0,12.51-.88A144.86,144.86,0,0,1,345.94,150a137.25,137.25,0,0,1,50.44,67,14.92,14.92,0,0,0,10.84,9.73,57,57,0,0,1,40.91,36.09A57,57,0,0,1,447,304.19Z"/><path fill="#3F9DD8" d="M320.53,259.95h0a13,13,0,0,0-13-13H297.22a48.53,48.53,0,0,0-4.67-11.34l7.31-7.31a13,13,0,0,0,0-18.34h0a13,13,0,0,0-18.34,0l-7.31,7.31a49,49,0,0,0-11.33-4.68V202.28a13,13,0,0,0-13-13h0a13,13,0,0,0-13,13v10.34a49.09,49.09,0,0,0-11.34,4.68l-7.3-7.3a13,13,0,0,0-18.34,18.34l7.3,7.3A48.79,48.79,0,0,0,202.56,247H192.22a13,13,0,0,0-13,13h0a13,13,0,0,0,13,13h10.34a48.93,48.93,0,0,0,4.68,11.34l-7.3,7.3a13,13,0,0,0,18.34,18.34l7.31-7.3a48.92,48.92,0,0,0,11.34,4.68v10.34a13,13,0,0,0,13,13h0a13,13,0,0,0,13-13V307.28a49.1,49.1,0,0,0,11.34-4.68l7.31,7.3a13,13,0,0,0,18.34-18.34l-7.3-7.3a48.41,48.41,0,0,0,4.67-11.34h10.35A13,13,0,0,0,320.53,259.95Zm-68,25.53a25.66,25.66,0,1,1,22.91-22.91A25.66,25.66,0,0,1,252.5,285.47Z"/></svg>