<svg id="Layer_1" data-name="Layer 1" xmlns="http://www.w3.org/2000/svg" viewBox="0 0 500 500"><title>configure</title><path fill="#3F9DD8" d="M264.72,78V37.34a19.24,19.24,0,0,0-38.47,0v40a58.36,58.36,0,0,0,0,110.92V462.71a19.24,19.24,0,1,0,38.47,0V187.52a58.38,58.38,0,0,0,0-109.49Zm0,74.82A28.53,28.53,0,1,1,273,132.78,28.44,28.44,0,0,1,264.72,152.85Z"/><path fill="#3F9DD8" d="M412.14,226.85V37.34a19.24,19.24,0,1,0-38.47,0V226.85a58.37,58.37,0,0,0,0,110.22V462.71a19.24,19.24,0,1,0,38.47,0V337.07a58.37,58.37,0,0,0,0-110.22Zm0,76.15a28.42,28.42,0,1,1,9.31-21A28.44,28.44,0,0,1,412.14,303Z"/><path fill="#3F9DD8" d="M118.08,328V37.34a19.24,19.24,0,0,0-38.47,0V328a58.38,58.38,0,0,0,0,110.24v24.43a19.24,19.24,0,1,0,38.47,0V438.28a58.38,58.38,0,0,0,0-110.24Zm0,76.17a28.42,28.42,0,1,1,9.31-21A28.44,28.44,0,0,1,118.08,404.21Z"/></svg>