<svg id="Layer_1" data-name="Layer 1" xmlns="http://www.w3.org/2000/svg" viewBox="0 0 500 500"><title>fault</title><path fill="#3F9DD8" d="M355.4,249a103.91,103.91,0,0,0-48-87.55c.53.4,1.08.79,1.64,1.17a104,104,0,0,1,45.14,102.3A103.21,103.21,0,0,0,355.4,249ZM251.5,383.68a134.79,134.79,0,0,1-125.7-86.12,134.74,134.74,0,0,0,251.4,0A134.79,134.79,0,0,1,251.5,383.68Zm0-238.6a103.25,103.25,0,0,0-34.05,5.74c.75-.18,1.5-.39,2.24-.63a104.48,104.48,0,0,1,63.24-.12c.75.24,1.5.44,2.25.62A103.24,103.24,0,0,0,251.5,145.08ZM147.6,249a103.21,103.21,0,0,0,1.23,15.92,104,104,0,0,1,44.74-102c.53-.35,1-.72,1.54-1.11A103.9,103.9,0,0,0,147.6,249Z"/><path fill="#3F9DD8" d="M251.5,266.14h0a15.19,15.19,0,0,1-15.19-15.19V195.46a15.19,15.19,0,1,1,30.38,0v55.49A15.19,15.19,0,0,1,251.5,266.14Z"/><path fill="#3F9DD8" d="M251.5,480.27h0a16.94,16.94,0,0,1-16.94-16.94V426.81a16.94,16.94,0,0,1,33.87,0v36.52A16.94,16.94,0,0,1,251.5,480.27Z"/><path fill="#3F9DD8" d="M90.18,249h0a16.94,16.94,0,0,1-16.94,16.94H36.72a16.94,16.94,0,0,1,0-33.87H73.24A16.94,16.94,0,0,1,90.18,249Z"/><path fill="#3F9DD8" d="M483.22,249h0a16.94,16.94,0,0,1-16.94,16.94H429.76a16.94,16.94,0,0,1,0-33.87h36.52A16.94,16.94,0,0,1,483.22,249Z"/><path fill="#3F9DD8" d="M416.55,414h0a16.94,16.94,0,0,1-24,0l-25.82-25.83a16.94,16.94,0,0,1,24-24l25.82,25.83A16.94,16.94,0,0,1,416.55,414Z"/><path fill="#3F9DD8" d="M136.22,133.7h0a16.94,16.94,0,0,1-24,0L86.44,107.87a16.94,16.94,0,0,1,24-24l25.82,25.83A16.94,16.94,0,0,1,136.22,133.7Z"/><path fill="#3F9DD8" d="M416.55,83.92h0a16.94,16.94,0,0,1,0,24L390.73,133.7a16.94,16.94,0,0,1-24-24L392.6,83.92A16.94,16.94,0,0,1,416.55,83.92Z"/><path fill="#3F9DD8" d="M136.22,364.25h0a16.94,16.94,0,0,1,0,24L110.4,414a16.94,16.94,0,0,1-24-24l25.83-25.83A16.94,16.94,0,0,1,136.22,364.25Z"/><path fill="#3F9DD8" d="M251.5,315.84h0a15.19,15.19,0,1,1,15.19-15.19A15.19,15.19,0,0,1,251.5,315.84Z"/><path fill="#3F9DD8" d="M386.21,249a134.59,134.59,0,0,0-60.1-112.18V137a134.94,134.94,0,0,1,57.36,139.17A134.93,134.93,0,0,0,386.21,249ZM251.5,352.87A104.07,104.07,0,0,1,158.33,295a103.83,103.83,0,0,0,186.34,0A104.07,104.07,0,0,1,251.5,352.87Zm0-238.6a134.53,134.53,0,0,0-41.25,6.44v.15a135.31,135.31,0,0,1,82-.16v-.15A134.42,134.42,0,0,0,251.5,114.27ZM116.79,249a134.93,134.93,0,0,0,2.74,27.15A134.95,134.95,0,0,1,176.37,137.3v-.16A134.6,134.6,0,0,0,116.79,249Z"/><path fill="#3F9DD8" d="M326.11,137V38.11a16.48,16.48,0,0,0-16.47-16.48H192.84a16.48,16.48,0,0,0-16.47,16.48V137.3a134.95,134.95,0,0,0-56.84,138.83c.24,1.2.51,2.4.79,3.6.2.89.42,1.77.65,2.66a4.64,4.64,0,0,0,.12.47q.39,1.5.81,3c.15.53.31,1.06.46,1.59q.78,2.61,1.65,5.18t1.79,4.93a134.8,134.8,0,0,0,251.4,0q.93-2.45,1.79-4.93t1.65-5.18c.15-.53.31-1.06.46-1.59q.42-1.5.81-3a4.64,4.64,0,0,0,.12-.47c.23-.89.45-1.77.65-2.66.28-1.2.55-2.4.79-3.6A134.94,134.94,0,0,0,326.11,137ZM210.25,72a16.46,16.46,0,0,1,16.47-16.47h49A16.47,16.47,0,0,1,292.24,72V120.7a135.31,135.31,0,0,0-82,.16ZM354.17,264.9c-.25,1.72-.56,3.42-.91,5.11a103,103,0,0,1-3.33,12.26c-.22.64-.44,1.28-.67,1.92-.34,1-.7,1.89-1.06,2.83h0c-.37.94-.75,1.87-1.15,2.79h0q-1.11,2.61-2.37,5.14a103.83,103.83,0,0,1-186.34,0q-1.26-2.54-2.37-5.14h0c-.4-.92-.78-1.85-1.15-2.79h0c-.36-.94-.72-1.88-1.06-2.83-.23-.64-.45-1.28-.67-1.92A103,103,0,0,1,149.74,270c-.35-1.69-.66-3.39-.91-5.11a103.81,103.81,0,0,1,46.28-103.15l.1-.07a103.8,103.8,0,0,1,90-11h.05a103.62,103.62,0,0,1,22.14,10.71l0,0A103.81,103.81,0,0,1,354.17,264.9Z"/></svg>