<svg id="Layer_1" data-name="Layer 1" xmlns="http://www.w3.org/2000/svg" viewBox="0 0 500 500"><title>flexible</title><path fill="#3F9DD8" d="M87.64,224.95H58.11l-.07-.16,27.47-27.47A13.47,13.47,0,0,0,85.34,178c-5.38-5.2-14.1-4.69-19.39.6L46.73,197.86,12.32,232.26a9.19,9.19,0,0,0,0,13l34.41,34.41,19.66,19.66A14.28,14.28,0,0,0,76,303.58a14.28,14.28,0,0,0,9.56-4.25,13.47,13.47,0,0,0,0-19.13L58,252.2l.07-.16H87.64A148.9,148.9,0,0,1,207.2,312.41a13.67,13.67,0,0,0,23.28-2l.06-.12a13.71,13.71,0,0,0-1.23-14.28A176.09,176.09,0,0,0,87.64,224.95Z"/><path fill="#3F9DD8" d="M485,228.67l-31.34-31.34-19.13-19.66a13.52,13.52,0,1,0-19.13,19.13l27.63,27.63H413.3C351.68,224.95,298,255.76,266.14,303c-.53,1.06-1.59,2.66-2.12,3.72a175,175,0,0,0-13.81,26,171,171,0,0,0-13.81,68v-1.16a14.48,14.48,0,0,0,10,14c8.93,2.69,17.64-4.55,17.64-13.24v.42A148.82,148.82,0,0,1,412.77,252h29.75L414.9,279.67a13.47,13.47,0,0,0,0,19.13,14.28,14.28,0,0,0,9.56,4.25A13.3,13.3,0,0,0,434,298.8l19.66-19.66L485,247.79C490.87,243,490.87,234,485,228.67Z"/><path fill="#3F9DD8" d="M310.77,123.9,256.7,69.83a9.19,9.19,0,0,0-13,0L189.64,123.9a13.47,13.47,0,0,0,.17,19.29c5.38,5.2,14.1,4.69,19.39-.6l27.19-27.19V263.75a13.81,13.81,0,1,0,27.62,0V115.4L291.64,143a12.88,12.88,0,0,0,19.13,0A13.47,13.47,0,0,0,310.77,123.9Z"/></svg>