<svg id="Layer_1" data-name="Layer 1" xmlns="http://www.w3.org/2000/svg" viewBox="0 0 500 500"><title>infrastructure</title><path fill="#3F9DD8" d="M435,260.89a46.84,46.84,0,0,0-44.51,32.27H302.54a8.43,8.43,0,0,0-8.43,8.43v89.27a46.81,46.81,0,1,0,26.23-.94v-70.5h69.29A46.83,46.83,0,1,0,435,260.89ZM331.72,435.31a22.94,22.94,0,1,1-11.38-19.76A22.9,22.9,0,0,1,331.72,435.31ZM435,330.61a22.89,22.89,0,1,1,22.9-22.9A22.86,22.86,0,0,1,435,330.61Z"/><path fill="#3F9DD8" d="M435.7,145.22a46.85,46.85,0,0,0-45.4,35.3H319.79V111.24a46.86,46.86,0,1,0-26.23-.86v87.94a8.43,8.43,0,0,0,8.43,8.44h89.27a46.83,46.83,0,1,0,44.46-61.55ZM293.55,83.54a22.82,22.82,0,1,1,14.55,5.23A22.84,22.84,0,0,1,293.55,83.54ZM435.7,214.93a22.89,22.89,0,1,1,22.9-22.88A22.82,22.82,0,0,1,435.7,214.93Z"/><path fill="#3F9DD8" d="M190.83,19.05a46.83,46.83,0,0,0-11.52,92.22v70.52H110a46.85,46.85,0,1,0-.85,26.23h87.94a8.42,8.42,0,0,0,8.43-8.43V110.33a46.82,46.82,0,0,0-14.71-91.28ZM82.33,208a22.78,22.78,0,1,1,5.23-14.55A22.84,22.84,0,0,1,82.33,208ZM205.54,83.41a22.89,22.89,0,1,1,8.19-17.54A22.8,22.8,0,0,1,205.54,83.41Z"/><path fill="#3F9DD8" d="M206.1,390.81V302.86a8.42,8.42,0,0,0-8.43-8.42H108.41a46.82,46.82,0,1,0,.94,26.23h70.52V390a46.85,46.85,0,1,0,26.23.85ZM83.71,320.67a22.79,22.79,0,1,1,3.14-11.52A22.58,22.58,0,0,1,83.71,320.67ZM191.55,458.21a22.88,22.88,0,0,1-11.68-42.56,22.88,22.88,0,0,1,34.58,19.66A22.9,22.9,0,0,1,191.55,458.21Z"/><path fill="#3F9DD8" d="M263.22,378a13.12,13.12,0,1,1-13.12-13.12A13.13,13.13,0,0,1,263.22,378Z"/><path fill="#3F9DD8" d="M263.22,335.29a13.13,13.13,0,1,1-3.85-9.27A13.13,13.13,0,0,1,263.22,335.29Z"/><path fill="#3F9DD8" d="M263.22,292.59a13.12,13.12,0,1,1-13.12-13.12A13.13,13.13,0,0,1,263.22,292.59Z"/><path fill="#3F9DD8" d="M263.22,207.18a13.12,13.12,0,1,1-13.12-13.12A13.13,13.13,0,0,1,263.22,207.18Z"/><path fill="#3F9DD8" d="M263.22,164.48a13.12,13.12,0,1,1-13.12-13.12A13.12,13.12,0,0,1,263.22,164.48Z"/><path fill="#3F9DD8" d="M263.22,121.77a13.13,13.13,0,1,1-3.85-9.27A13.12,13.12,0,0,1,263.22,121.77Z"/><path fill="#3F9DD8" d="M263.22,249.88a13.12,13.12,0,1,1-13.12-13.12A13.13,13.13,0,0,1,263.22,249.88Z"/><path fill="#3F9DD8" d="M391.32,249.88a13.12,13.12,0,1,1-13.12-13.12A13.13,13.13,0,0,1,391.32,249.88Z"/><path fill="#3F9DD8" d="M348.62,249.88a13.12,13.12,0,1,1-13.12-13.12A13.13,13.13,0,0,1,348.62,249.88Z"/><path fill="#3F9DD8" d="M305.92,249.88a13.12,13.12,0,1,1-13.12-13.12A13.09,13.09,0,0,1,305.92,249.88Z"/><path fill="#3F9DD8" d="M220.51,249.88a13.12,13.12,0,1,1-13.12-13.12A13.09,13.09,0,0,1,220.51,249.88Z"/><path fill="#3F9DD8" d="M177.81,249.88a13.12,13.12,0,1,1-13.12-13.12A13.13,13.13,0,0,1,177.81,249.88Z"/><path fill="#3F9DD8" d="M135.11,249.88A13.12,13.12,0,1,1,122,236.76,13.13,13.13,0,0,1,135.11,249.88Z"/></svg>