<svg id="Layer_1" data-name="Layer 1" xmlns="http://www.w3.org/2000/svg" viewBox="0 0 500 500"><title>large-scale</title><path fill="#3F9DD8" d="M111.9,15.1H28.32a10,10,0,0,0-10,10v83.58a14.72,14.72,0,0,0,15,14.78c8.18-.14,14.52-7.27,14.52-15.45V66l72,72a15.1,15.1,0,1,0,21.35-21.35l-72-72H111.9a15.62,15.62,0,0,0,10.68-4.11,15.62,15.62,0,0,0,4.11-10.68A14.72,14.72,0,0,0,111.9,15.1Z"/><path fill="#3F9DD8" d="M18.6,388.62V472.2a10,10,0,0,0,10,10h83.58a14.72,14.72,0,0,0,14.78-15c-.14-8.18-7.27-14.52-15.45-14.52h-42l72-72a15.1,15.1,0,1,0-21.35-21.35l-72,72V388.62a15.62,15.62,0,0,0-4.11-10.68,15.62,15.62,0,0,0-10.68-4.11A14.72,14.72,0,0,0,18.6,388.62Z"/><path fill="#3F9DD8" d="M390.92,481.24h83.58a10,10,0,0,0,10-10V387.62a14.72,14.72,0,0,0-15-14.78c-8.18.14-14.52,7.27-14.52,15.45v42l-72-72a15.1,15.1,0,0,0-21.35,21.35l72,72H390.92a14.08,14.08,0,0,0-14.78,14.78A14.72,14.72,0,0,0,390.92,481.24Z"/><path fill="#3F9DD8" d="M483.88,108.73V25.15a10,10,0,0,0-10-10H390.26a14.72,14.72,0,0,0-14.78,15c.14,8.18,7.27,14.52,15.45,14.52h42l-72,72a15.1,15.1,0,1,0,21.35,21.35l72-72v42.71a14.08,14.08,0,0,0,14.78,14.78A14.72,14.72,0,0,0,483.88,108.73Z"/><path fill="#3F9DD8" d="M318.33,329V315H182.94v.66l.26-.61-.26-.06v.66l.26-.61-.24.57.51-.35-.27-.22-.24.57.51-.35-.55.37h.67l-.12-.37-.55.37h.67V180.22h-.66l.61.26.06-.26h-.66l.61.26-.57-.24.35.51.22-.27-.57-.24.35.51-.37-.55v.67l.37-.12-.37-.55v.67H318.33v-.66l-.26.61.26.06v-.66l-.26.61.24-.57-.51.35.27.22.24-.57-.51.35.55-.37h-.67l.12.37.55-.37h-.67V315.6h.66l-.61-.26-.06.26h.66l-.61-.26.57.24-.35-.51-.22.27.57.24-.35-.51.37.55V315l-.37.12.37.55v27.46a27.48,27.48,0,0,0,27.48-27.48V180.22a27.48,27.48,0,0,0-27.48-27.48H182.94a27.48,27.48,0,0,0-27.48,27.48V315.6a27.48,27.48,0,0,0,27.48,27.48H318.33Z"/></svg>