<svg id="Layer_1" data-name="Layer 1" xmlns="http://www.w3.org/2000/svg" viewBox="0 0 500 500"><title>search</title><path fill="#3F9DD8" d="M201.11,83.06c64.85,0,117.62,52.1,117.62,116.14a114,114,0,0,1-25.07,71.46l-9.46,11.92-12.53,9.32a117.42,117.42,0,0,1-70.56,23.44c-64.85,0-117.62-52.1-117.62-116.14S136.26,83.06,201.11,83.06m0-41.83c-88.06,0-159.45,70.72-159.45,158s71.39,158,159.45,158a159.49,159.49,0,0,0,95.53-31.71,20.58,20.58,0,0,0,1.45,1.78L422.63,451.78a20.91,20.91,0,1,0,29.57-29.57L327.67,297.67c-.38-.38-.83-.66-1.23-1a156.22,156.22,0,0,0,34.13-97.46c0-87.24-71.39-158-159.45-158Z"/></svg>