<svg id="Layer_1" data-name="Layer 1" xmlns="http://www.w3.org/2000/svg" viewBox="0 0 500 500"><title>time</title><path fill="#3F9DD8" d="M470.57,157.18A238.67,238.67,0,1,0,489.31,250,239.13,239.13,0,0,0,470.57,157.18ZM437.72,328.82A203,203,0,1,1,453.64,250,203.46,203.46,0,0,1,437.72,328.82Z"/><path fill="#3F9DD8" d="M379.34,359.67a18.89,18.89,0,0,1-26.64,1.84L241.84,265a18.81,18.81,0,0,1-6.47-14.91c0-.26,0-.52,0-.78v-147a18.88,18.88,0,0,1,37.76,0V242.15L377.49,333A18.89,18.89,0,0,1,379.34,359.67Z"/></svg>