<svg id="Layer_1" data-name="Layer 1" xmlns="http://www.w3.org/2000/svg" viewBox="0 0 500 500"><title>updates</title><path fill="#3F9DD8" d="M481.15,230.46a82.14,82.14,0,0,0-10.43-21.75A188.67,188.67,0,0,0,459,193.14h0c-2.22-2.72-4.4-5.42-5.92-7.52-.74-1-1.31-1.89-1.62-2.41a36,36,0,0,1-.16-3.84c0-2.63.16-6,.34-9.52.2-3.84.43-8.25.43-13A96.3,96.3,0,0,0,449.82,135a64.61,64.61,0,0,0-10.6-23.65,63.07,63.07,0,0,0-12.78-13A81.57,81.57,0,0,0,405.5,87c-6.78-2.56-13.14-4.24-18.41-5.67-3.65-1-7.1-1.92-9.62-2.76-1.26-.41-2.27-.8-2.85-1.06l0,0c-.15-.17-.34-.39-.56-.66-.77-.93-1.84-2.39-3-4.1S368.56,69,367.23,67v0c-4-6.15-9-14-16-21.61a75.63,75.63,0,0,0-12.41-10.82,63.44,63.44,0,0,0-16.46-8.17h0a59.37,59.37,0,0,0-18.39-2.77,90.36,90.36,0,0,0-22.09,3,166.63,166.63,0,0,0-18.54,6h0c-3.61,1.39-7,2.68-9.65,3.5-1.3.42-2.4.7-3.1.85l-.46.09h0c-.25,0-.65-.12-1.15-.24-1.24-.3-3.09-.87-5.18-1.61s-4.46-1.64-6.93-2.58a168.31,168.31,0,0,0-18.52-6,89.49,89.49,0,0,0-22.1-3,59.3,59.3,0,0,0-18.41,2.78,63,63,0,0,0-16.45,8.16,81.91,81.91,0,0,0-17.33,16.54,186.51,186.51,0,0,0-11.1,15.87c-2,3.13-4,6.08-5.51,8.19-.76,1-1.43,1.87-1.84,2.33,0,0,0,0,0,0a43.8,43.8,0,0,1-4.7,1.66c-2.27.7-5,1.43-7.87,2.21-7,1.9-16,4.21-25.28,8.55a75.89,75.89,0,0,0-14,8.41,63,63,0,0,0-12.76,13,64.2,64.2,0,0,0-10.6,23.61A95.68,95.68,0,0,0,48,156.79c0,4.81.23,9.23.43,13.09.18,3.5.34,6.83.33,9.45,0,1.52,0,2.8-.13,3.6q0,.15,0,.27c.12-.2.2-.35.25-.44,0,.09-.1.26-.19.53l0,.14c0,.12-.06.2-.07.25s0-.25.06-.47l-.42.65c-.67,1-1.75,2.51-3,4.12s-2.7,3.39-4.15,5.17h0c-4.65,5.73-10.63,12.94-15.7,22.07a76.27,76.27,0,0,0-6.5,15.27,63.54,63.54,0,0,0,0,36.65A81.83,81.83,0,0,0,29.29,288.9,189.23,189.23,0,0,0,41,304.49c2.21,2.71,4.38,5.41,5.9,7.51.74,1,1.31,1.88,1.61,2.39a32.85,32.85,0,0,1,.17,3.85c0,2.62-.16,6-.34,9.53-.2,3.83-.43,8.23-.43,13a96.39,96.39,0,0,0,2.24,21.85,64.61,64.61,0,0,0,10.6,23.65,63,63,0,0,0,12.77,13,82.14,82.14,0,0,0,21,11.32c6.78,2.56,13.13,4.23,18.4,5.66,3.65,1,7.11,1.92,9.63,2.76,1.26.42,2.27.81,2.85,1.07l.06,0c.15.16.34.38.55.64.77.93,1.84,2.39,3,4.1s2.45,3.7,3.78,5.76v0c4,6.15,9,14,16,21.61a76.15,76.15,0,0,0,12.41,10.83,63.35,63.35,0,0,0,16.45,8.16,59.57,59.57,0,0,0,18.45,2.79,89.91,89.91,0,0,0,22.11-3,168.34,168.34,0,0,0,18.49-6h0c3.61-1.39,7-2.68,9.65-3.5,1.3-.41,2.4-.7,3.1-.84l.48-.1c.25,0,.65.12,1.15.25,1.24.3,3.09.87,5.18,1.61s4.47,1.63,6.94,2.58c5,1.91,10.83,4.15,17.41,6a82.37,82.37,0,0,0,22.14,3.29,63.27,63.27,0,0,0,19.45-3h0a63.42,63.42,0,0,0,16.46-8.16,81.7,81.7,0,0,0,17.33-16.55,187.18,187.18,0,0,0,11.12-15.89c2-3.13,3.94-6.07,5.48-8.17.77-1,1.43-1.86,1.84-2.32l0,0c.22-.1.53-.24.9-.38,1.15-.46,2.9-1,4.91-1.63s4.32-1.21,6.72-1.85h0c7-1.91,16-4.23,25.3-8.56a75.88,75.88,0,0,0,14-8.41,62.79,62.79,0,0,0,12.74-13,64.35,64.35,0,0,0,10.61-23.62A96.3,96.3,0,0,0,452,340.86c0-4.82-.23-9.24-.43-13.09-.18-3.51-.34-6.84-.33-9.46,0-1.52,0-2.79.13-3.6q0-.15,0-.27h0c.11-.19.25-.42.42-.68.67-1,1.75-2.51,3-4.12s2.66-3.36,4.11-5.14c4.64-5.74,10.63-12.94,15.7-22.07a76.36,76.36,0,0,0,6.5-15.28,64.4,64.4,0,0,0,2.7-18.33v-.09A63.91,63.91,0,0,0,481.15,230.46ZM448,248.85a28,28,0,0,1-1.21,8.11,47,47,0,0,1-6,12.27c-2.75,4.18-6.14,8.38-9.63,12.67l0,0c-2.2,2.72-4.72,5.8-7.11,9.1-1.2,1.65-2.37,3.37-3.5,5.27a35.08,35.08,0,0,0-3.2,6.88l0,.05a38,38,0,0,0-1.58,8c-.23,2.44-.3,4.76-.3,7.05,0,3.92.21,7.74.38,11.28.2,3.85.39,7.64.39,11.27a61.51,61.51,0,0,1-1.31,13.75,28.74,28.74,0,0,1-4.68,10.64l0,0a26.83,26.83,0,0,1-5.54,5.62,46.25,46.25,0,0,1-11.84,6.26c-4.61,1.74-9.74,3.15-15,4.57-3.67,1-7.65,2-11.65,3.36-2,.67-4,1.41-6.11,2.33a36.59,36.59,0,0,0-6.64,3.76h0a35.52,35.52,0,0,0-5.57,5.14,76.7,76.7,0,0,0-5.82,7.53c-1.74,2.51-3.36,5-4.89,7.38h0c-4,6.14-7.89,12.08-12.16,16.63a40.09,40.09,0,0,1-6.55,5.77,27.81,27.81,0,0,1-7.19,3.59,27.28,27.28,0,0,1-8.41,1.25,46.83,46.83,0,0,1-12.51-2c-4.52-1.26-9.3-3.06-14.27-5h0c-3.63-1.39-7.59-2.91-11.74-4.22-2.09-.65-4.23-1.25-6.54-1.73a35.35,35.35,0,0,0-15.5,0,79.06,79.06,0,0,0-9.63,2.76c-3,1-5.94,2.16-8.66,3.21a132.83,132.83,0,0,1-14.55,4.77,54.49,54.49,0,0,1-13.27,1.92,23.83,23.83,0,0,1-7.38-1h0a27.81,27.81,0,0,1-7.19-3.59,46.74,46.74,0,0,1-9.7-9.42c-3.1-3.88-6-8.38-9-13-2-3.16-4.24-6.58-6.68-9.92-1.23-1.68-2.53-3.34-4-5a32.91,32.91,0,0,0-12.24-8.9,77.3,77.3,0,0,0-9.07-3.26c-3-.89-5.87-1.67-8.58-2.41h0c-7-1.88-13.87-3.8-19.48-6.44a39.93,39.93,0,0,1-7.44-4.41,27.37,27.37,0,0,1-5.57-5.65,28.56,28.56,0,0,1-4.68-10.67,61.76,61.76,0,0,1-1.32-13.78c0-3.61.19-7.37.38-11.2.18-3.55.39-7.39.39-11.35,0-2.27-.06-4.59-.3-7a37.81,37.81,0,0,0-1.56-7.91l0-.12a34.47,34.47,0,0,0-3.17-6.87,79.51,79.51,0,0,0-5.33-7.75c-1.82-2.37-3.65-4.62-5.29-6.64l0,0c-4.65-5.7-9.11-11.31-12.15-16.83a40.8,40.8,0,0,1-3.5-8.12,28,28,0,0,1,0-16.28,46.8,46.8,0,0,1,6-12.27,157.91,157.91,0,0,1,9.63-12.67l0,0c2.19-2.71,4.71-5.79,7.1-9.07,1.19-1.65,2.37-3.36,3.49-5.25a34.78,34.78,0,0,0,3.21-6.83l0-.15a37.81,37.81,0,0,0,1.58-8c.23-2.45.3-4.77.3-7.06,0-3.91-.21-7.74-.39-11.28-.19-3.85-.38-7.63-.38-11.26A61.55,61.55,0,0,1,85.1,143a28.69,28.69,0,0,1,4.68-10.63v0a27.52,27.52,0,0,1,5.56-5.64,46.5,46.5,0,0,1,11.85-6.27c4.61-1.75,9.75-3.15,15-4.56h0c3.64-1,7.6-2,11.59-3.35,2-.67,4-1.4,6.1-2.32a37.08,37.08,0,0,0,6.67-3.76v0a35.67,35.67,0,0,0,5.58-5.14A77.85,77.85,0,0,0,158,93.77c1.73-2.5,3.35-5,4.87-7.35l0,0c4-6.14,7.89-12.08,12.16-16.64A40.58,40.58,0,0,1,181.59,64a27.47,27.47,0,0,1,7.19-3.58h0a23.75,23.75,0,0,1,7.34-1,54.63,54.63,0,0,1,13.28,1.92A133,133,0,0,1,224,66.07h0c3.63,1.38,7.57,2.9,11.73,4.21,2.08.65,4.23,1.25,6.54,1.73a35,35,0,0,0,15.51,0,77.63,77.63,0,0,0,9.62-2.76c3-1,5.93-2.16,8.65-3.2a132.43,132.43,0,0,1,14.57-4.77,55.08,55.08,0,0,1,13.29-1.91,24,24,0,0,1,7.36,1A27.47,27.47,0,0,1,318.45,64a46.81,46.81,0,0,1,9.7,9.43c3.1,3.87,6,8.36,9,13,2,3.16,4.24,6.58,6.69,9.93,1.23,1.68,2.53,3.35,4,5a35.85,35.85,0,0,0,5.56,5.13,36.36,36.36,0,0,0,6.68,3.77,79,79,0,0,0,9.07,3.25c3,.9,5.87,1.68,8.58,2.41h0c7,1.87,13.87,3.79,19.48,6.43a39.93,39.93,0,0,1,7.44,4.41,27.12,27.12,0,0,1,5.57,5.65A28.88,28.88,0,0,1,415,143.05a61.73,61.73,0,0,1,1.32,13.77c0,3.62-.19,7.38-.38,11.21-.18,3.55-.39,7.4-.39,11.35,0,2.27.06,4.59.3,7a37.41,37.41,0,0,0,1.6,8,34.47,34.47,0,0,0,3.17,6.87,78.37,78.37,0,0,0,5.33,7.75c1.82,2.38,3.66,4.63,5.3,6.65h0c4.65,5.69,9.1,11.3,12.14,16.82a41,41,0,0,1,3.49,8.11,27.94,27.94,0,0,1,1.21,8.11Z"/><path fill="#3F9DD8" d="M48.85,182.76c0,.09-.1.26-.19.53l0,.14c0,.12-.06.2-.07.25s0-.25.06-.47h0C48.72,183,48.8,182.85,48.85,182.76Z"/><path fill="#3F9DD8" d="M127.07,248.81a122.94,122.94,0,1,0,245.87,0,20.49,20.49,0,0,0-41,0,82,82,0,1,1-82-82,20.49,20.49,0,1,0,0-41A123.06,123.06,0,0,0,127.07,248.81Z"/><path fill="#3F9DD8" d="M323.77,171a20.51,20.51,0,0,0-28.68,4.1L247.8,238.12,244,234.33a20.49,20.49,0,0,0-29,29l20.49,20.49a20.42,20.42,0,0,0,14.49,6,11.92,11.92,0,0,0,1.46-.08,20.44,20.44,0,0,0,14.94-8.14l61.47-82A20.47,20.47,0,0,0,323.77,171Z"/></svg>