<svg xmlns="http://www.w3.org/2000/svg" xmlns:xlink="http://www.w3.org/1999/xlink" viewBox="0 0 319.12 105.26"><defs><style>.cls-1{stroke:#6b6b6b;stroke-miterlimit:10;stroke-width:0.5px;fill:url(#linear-gradient);}.cls-2{opacity:0.8;}.cls-3{fill:url(#linear-gradient-2);}.cls-4{fill:#e5e5e5;}</style><linearGradient id="linear-gradient" x1="55.65" y1="89.98" x2="12.01" y2="18.47" gradientUnits="userSpaceOnUse"><stop offset="0" stop-color="#8c8c8c"/><stop offset="1" stop-color="#f9f9f9"/></linearGradient><linearGradient id="linear-gradient-2" x1="21.81" y1="-9.6" x2="69.09" y2="58.27" gradientUnits="userSpaceOnUse"><stop offset="0" stop-color="#09f"/><stop offset="1" stop-color="#069"/></linearGradient></defs><title>vespa-logo-black_1</title><g id="Layer_2" data-name="Layer 2"><g id="Layer_1-2" data-name="Layer 1"><path class="cls-1" d="M64.33.49,97.83,105H71.93L59.22,60.82c-3.57-12.41-6.82-24.35-9.3-37.37h-.47C46.81,36,43.55,48.41,40,60.35L26.65,105H1.53L36.73.49Z"/><g class="cls-2"><path class="cls-3" d="M33.5,104.52,0,0H25.9L38.61,44.2c3.57,12.41,6.82,24.35,9.3,37.37h.47C51,69,54.28,56.6,57.84,44.66L71.18,0H96.3L61.1,104.52Z"/></g><path class="cls-4" d="M123.69,38.45h10.49l6.23,20.21c1.14,3.72,1.75,6.23,1.75,6.23h.15s.53-2.51,1.67-6.23l6.38-20.21h10.33l-13.6,39h-9.88Z"/><path class="cls-4" d="M161.15,57.9c0-11.55,7.83-20.52,19.23-20.52,12.54,0,19.23,9.57,19.23,23.48H171.33c.76,6,4.1,9.73,10,9.73,4,0,6.38-1.82,7.52-4.79H199c-1.44,6.92-7.6,12.77-17.63,12.77C168.44,78.57,161.15,69.53,161.15,57.9Zm10.33-4.18h17.33c-.3-4.94-3.57-8.36-8.28-8.36C175.05,45.36,172.39,48.63,171.48,53.72Z"/><path class="cls-4" d="M202,64.81h9.57c.68,4.48,3.88,6.46,8.51,6.46s7.14-1.75,7.14-4.48c0-3.72-4.94-4.1-10.26-5.17-7-1.37-13.83-3.27-13.83-11.78s7-12.46,15.88-12.46c10.26,0,16,5.09,16.72,12.92h-9.35c-.46-4.18-3.12-5.7-7.52-5.7-4,0-6.69,1.52-6.69,4.33,0,3.34,5.17,3.65,10.71,4.79,6.54,1.37,13.75,3.19,13.75,12.31,0,7.83-6.69,12.54-16.41,12.54C208.87,78.57,202.56,73.1,202,64.81Z"/><path class="cls-4" d="M241.23,38.45h10v4.86h.23a13.62,13.62,0,0,1,11.47-5.93c10.33,0,16.95,8.44,16.95,20.59,0,12.61-6.84,20.59-16.87,20.59-5.47,0-9-2.2-11.25-5.55h-.15V90.19H241.23Zm28.12,19.83c0-7.37-2.58-12.54-9-12.54s-9,5.55-9,12.54S254.61,70,260.76,70C266,70,269.35,65.65,269.35,58.28Z"/><path class="cls-4" d="M307.95,73.1h-.15c-2,3-4.79,5.24-11.47,5.24-8,0-13.6-4.18-13.6-11.93,0-8.59,7-11.32,15.65-12.54,6.46-.91,9.42-1.44,9.42-4.41,0-2.81-2.2-4.63-6.54-4.63-4.86,0-7.22,1.75-7.52,5.47h-9.19c.3-6.84,5.4-12.84,16.79-12.84,11.7,0,16.41,5.24,16.41,14.36V71.65c0,3,.46,4.71,1.37,5.39v.38h-10C308.56,76.67,308.18,74.84,307.95,73.1Zm.08-9.42V57.82c-1.82,1.06-4.64,1.67-7.22,2.28-5.4,1.22-8.06,2.43-8.06,6.08s2.43,4.94,6.08,4.94C304.76,71.12,308,67.47,308,63.67Z"/></g></g></svg>